<svg xmlns="http://www.w3.org/2000/svg" xmlns:xlink="http://www.w3.org/1999/xlink" width="700" zoomAndPan="magnify" viewBox="0 0 525 525.000007" height="700" preserveAspectRatio="xMidYMid meet" version="1.0"><defs><clipPath id="2c9a9b3cff"><path d="M 5 120.582031 L 524.351562 120.582031 L 524.351562 278 L 5 278 Z M 5 120.582031 " clip-rule="nonzero"/></clipPath><clipPath id="580480a6e6"><path d="M 0.5 52.398438 L 342 52.398438 L 342 210 L 0.5 210 Z M 0.5 52.398438 " clip-rule="nonzero"/></clipPath><clipPath id="9abc495114"><path d="M 0.703125 320 L 341.621094 320 L 341.621094 476.839844 L 0.703125 476.839844 Z M 0.703125 320 " clip-rule="nonzero"/></clipPath></defs><g clip-path="url(#2c9a9b3cff)"><path fill="#247dfe" d="M 14.039062 260.933594 C 9.515625 260.933594 5.851562 264.597656 5.851562 269.113281 C 5.851562 273.636719 9.515625 277.296875 14.039062 277.296875 L 446 277.296875 C 467.640625 277.296875 487.226562 268.523438 501.402344 254.347656 C 515.582031 240.171875 524.351562 220.578125 524.351562 198.945312 C 524.351562 177.308594 515.582031 157.722656 501.402344 143.539062 C 487.226562 129.363281 467.640625 120.59375 446 120.59375 C 424.363281 120.59375 404.777344 129.363281 390.601562 143.539062 C 376.417969 157.722656 367.652344 177.308594 367.652344 198.945312 C 367.652344 203.464844 371.3125 207.128906 375.828125 207.128906 C 380.351562 207.128906 384.015625 203.464844 384.015625 198.945312 C 384.015625 181.824219 390.949219 166.328125 402.167969 155.113281 C 413.382812 143.894531 428.882812 136.957031 446 136.957031 C 463.117188 136.957031 478.613281 143.894531 489.835938 155.113281 C 501.046875 166.328125 507.988281 181.824219 507.988281 198.945312 C 507.988281 216.0625 501.046875 231.558594 489.835938 242.777344 C 478.613281 253.992188 463.117188 260.933594 446 260.933594 L 14.039062 260.933594 " fill-opacity="1" fill-rule="nonzero"/></g><g clip-path="url(#580480a6e6)"><path fill="#247dfe" d="M 8.886719 192.746094 C 4.367188 192.746094 0.703125 196.40625 0.703125 200.925781 C 0.703125 205.445312 4.367188 209.109375 8.886719 209.109375 L 263.171875 209.109375 C 284.808594 209.109375 304.394531 200.335938 318.570312 186.160156 C 332.753906 171.980469 341.527344 152.390625 341.527344 130.753906 C 341.527344 109.121094 332.753906 89.53125 318.570312 75.355469 C 304.394531 61.171875 284.808594 52.40625 263.171875 52.40625 C 241.539062 52.40625 221.949219 61.171875 207.769531 75.355469 C 193.589844 89.53125 184.816406 109.121094 184.816406 130.753906 C 184.816406 135.277344 188.480469 138.9375 193.003906 138.9375 C 197.519531 138.9375 201.179688 135.277344 201.179688 130.753906 C 201.179688 113.636719 208.125 98.140625 219.335938 86.925781 C 230.558594 75.703125 246.054688 68.769531 263.171875 68.769531 C 280.289062 68.769531 295.789062 75.703125 307.003906 86.925781 C 318.222656 98.140625 325.15625 113.636719 325.15625 130.753906 C 325.15625 147.871094 318.222656 163.371094 307.003906 174.589844 C 295.789062 185.804688 280.289062 192.746094 263.171875 192.746094 L 8.886719 192.746094 " fill-opacity="1" fill-rule="nonzero"/></g><g clip-path="url(#9abc495114)"><path fill="#247dfe" d="M 8.886719 320.207031 C 4.367188 320.207031 0.703125 323.875 0.703125 328.390625 C 0.703125 332.90625 4.367188 336.574219 8.886719 336.574219 L 263.171875 336.574219 C 280.289062 336.574219 295.789062 343.511719 307.003906 354.726562 C 318.222656 365.945312 325.15625 381.441406 325.15625 398.5625 C 325.15625 415.679688 318.222656 431.175781 307.003906 442.390625 C 295.789062 453.609375 280.289062 460.546875 263.171875 460.546875 C 246.054688 460.546875 230.558594 453.609375 219.335938 442.390625 C 208.125 431.175781 201.179688 415.679688 201.179688 398.5625 C 201.179688 394.042969 197.519531 390.375 193.003906 390.375 C 188.480469 390.375 184.816406 394.042969 184.816406 398.5625 C 184.816406 420.195312 193.589844 439.78125 207.769531 453.964844 C 221.949219 468.140625 241.539062 476.914062 263.171875 476.914062 C 284.808594 476.914062 304.394531 468.140625 318.570312 453.964844 C 332.753906 439.78125 341.527344 420.195312 341.527344 398.5625 C 341.527344 376.925781 332.753906 357.339844 318.570312 343.15625 C 304.394531 328.980469 284.808594 320.207031 263.171875 320.207031 L 8.886719 320.207031 " fill-opacity="1" fill-rule="nonzero"/></g></svg>