<svg xmlns="http://www.w3.org/2000/svg" xmlns:xlink="http://www.w3.org/1999/xlink" width="700" zoomAndPan="magnify" viewBox="0 0 525 525.000007" height="700" preserveAspectRatio="xMidYMid meet" version="1.0"><defs><clipPath id="726e5ad57a"><path d="M 0.5 0 L 524.5 0 L 524.5 524 L 0.5 524 Z M 0.5 0 " clip-rule="nonzero"/></clipPath></defs><g clip-path="url(#726e5ad57a)"><path fill="#12b060" d="M 262.5 0 C 258.210938 0 253.925781 0.105469 249.644531 0.316406 C 245.363281 0.527344 241.085938 0.839844 236.820312 1.261719 C 232.550781 1.683594 228.296875 2.207031 224.054688 2.835938 C 219.816406 3.464844 215.589844 4.199219 211.386719 5.035156 C 207.179688 5.871094 203 6.808594 198.839844 7.851562 C 194.679688 8.894531 190.546875 10.035156 186.445312 11.28125 C 182.34375 12.527344 178.273438 13.871094 174.234375 15.316406 C 170.199219 16.761719 166.199219 18.304688 162.238281 19.945312 C 158.273438 21.585938 154.355469 23.320312 150.480469 25.15625 C 146.605469 26.988281 142.773438 28.914062 138.992188 30.9375 C 135.210938 32.957031 131.480469 35.070312 127.804688 37.273438 C 124.125 39.480469 120.503906 41.773438 116.941406 44.15625 C 113.375 46.539062 109.871094 49.003906 106.425781 51.558594 C 102.980469 54.113281 99.601562 56.75 96.289062 59.472656 C 92.972656 62.191406 89.726562 64.992188 86.550781 67.871094 C 83.375 70.75 80.269531 73.707031 77.238281 76.738281 C 74.207031 79.769531 71.25 82.875 68.371094 86.050781 C 65.492188 89.230469 62.691406 92.476562 59.96875 95.789062 C 57.25 99.105469 54.613281 102.484375 52.058594 105.925781 C 49.503906 109.371094 47.035156 112.875 44.652344 116.441406 C 42.273438 120.007812 39.980469 123.628906 37.773438 127.304688 C 35.570312 130.984375 33.457031 134.714844 31.4375 138.496094 C 29.414062 142.277344 27.488281 146.105469 25.652344 149.980469 C 23.820312 153.855469 22.082031 157.777344 20.441406 161.738281 C 18.800781 165.699219 17.257812 169.699219 15.816406 173.734375 C 14.371094 177.773438 13.027344 181.84375 11.78125 185.945312 C 10.535156 190.050781 9.394531 194.179688 8.351562 198.339844 C 7.308594 202.5 6.371094 206.683594 5.535156 210.886719 C 4.695312 215.09375 3.964844 219.316406 3.335938 223.558594 C 2.707031 227.800781 2.179688 232.054688 1.761719 236.320312 C 1.339844 240.585938 1.023438 244.863281 0.816406 249.144531 C 0.605469 253.429688 0.5 257.714844 0.5 262 C 0.5 266.289062 0.605469 270.574219 0.816406 274.855469 C 1.023438 279.140625 1.339844 283.414062 1.761719 287.679688 C 2.179688 291.949219 2.707031 296.203125 3.335938 300.445312 C 3.964844 304.6875 4.695312 308.910156 5.535156 313.113281 C 6.371094 317.320312 7.308594 321.503906 8.351562 325.660156 C 9.394531 329.820312 10.535156 333.953125 11.78125 338.054688 C 13.027344 342.160156 14.371094 346.230469 15.816406 350.265625 C 17.257812 354.304688 18.800781 358.304688 20.441406 362.265625 C 22.082031 366.226562 23.820312 370.144531 25.652344 374.019531 C 27.488281 377.898438 29.414062 381.726562 31.4375 385.507812 C 33.457031 389.289062 35.570312 393.019531 37.773438 396.695312 C 39.980469 400.375 42.273438 403.996094 44.652344 407.5625 C 47.035156 411.125 49.503906 414.628906 52.058594 418.074219 C 54.613281 421.519531 57.25 424.898438 59.96875 428.210938 C 62.691406 431.527344 65.492188 434.773438 68.371094 437.949219 C 71.25 441.128906 74.207031 444.230469 77.238281 447.261719 C 80.269531 450.296875 83.375 453.25 86.550781 456.128906 C 89.726562 459.011719 92.972656 461.808594 96.289062 464.53125 C 99.601562 467.25 102.980469 469.886719 106.425781 472.441406 C 109.871094 474.996094 113.375 477.464844 116.941406 479.847656 C 120.503906 482.230469 124.125 484.523438 127.804688 486.726562 C 131.480469 488.929688 135.210938 491.042969 138.992188 493.066406 C 142.773438 495.085938 146.605469 497.015625 150.480469 498.847656 C 154.355469 500.679688 158.273438 502.417969 162.238281 504.058594 C 166.199219 505.699219 170.199219 507.242188 174.234375 508.6875 C 178.273438 510.132812 182.34375 511.476562 186.445312 512.71875 C 190.546875 513.964844 194.679688 515.109375 198.839844 516.148438 C 203 517.191406 207.179688 518.132812 211.386719 518.96875 C 215.589844 519.804688 219.816406 520.535156 224.054688 521.167969 C 228.296875 521.796875 232.550781 522.320312 236.820312 522.742188 C 241.085938 523.160156 245.363281 523.476562 249.644531 523.6875 C 253.925781 523.898438 258.210938 524 262.5 524 C 266.789062 524 271.074219 523.898438 275.355469 523.6875 C 279.636719 523.476562 283.914062 523.160156 288.179688 522.742188 C 292.449219 522.320312 296.703125 521.796875 300.945312 521.167969 C 305.183594 520.535156 309.410156 519.804688 313.613281 518.96875 C 317.820312 518.132812 322 517.191406 326.160156 516.148438 C 330.320312 515.109375 334.453125 513.964844 338.554688 512.71875 C 342.65625 511.476562 346.726562 510.132812 350.765625 508.6875 C 354.800781 507.242188 358.800781 505.699219 362.761719 504.058594 C 366.726562 502.417969 370.644531 500.679688 374.519531 498.847656 C 378.394531 497.015625 382.226562 495.085938 386.007812 493.066406 C 389.789062 491.042969 393.515625 488.929688 397.195312 486.726562 C 400.875 484.523438 404.496094 482.230469 408.058594 479.847656 C 411.625 477.464844 415.128906 474.996094 418.574219 472.441406 C 422.019531 469.886719 425.398438 467.25 428.710938 464.53125 C 432.027344 461.808594 435.273438 459.011719 438.449219 456.128906 C 441.625 453.25 444.730469 450.296875 447.761719 447.261719 C 450.792969 444.230469 453.75 441.128906 456.628906 437.949219 C 459.507812 434.773438 462.308594 431.527344 465.03125 428.210938 C 467.75 424.898438 470.386719 421.519531 472.941406 418.074219 C 475.496094 414.628906 477.964844 411.125 480.347656 407.5625 C 482.726562 403.996094 485.019531 400.375 487.226562 396.695312 C 489.429688 393.019531 491.542969 389.289062 493.5625 385.507812 C 495.585938 381.726562 497.511719 377.898438 499.347656 374.019531 C 501.179688 370.144531 502.917969 366.226562 504.558594 362.265625 C 506.199219 358.304688 507.742188 354.304688 509.183594 350.265625 C 510.628906 346.230469 511.972656 342.160156 513.21875 338.054688 C 514.464844 333.953125 515.605469 329.820312 516.648438 325.660156 C 517.691406 321.503906 518.628906 317.320312 519.464844 313.113281 C 520.304688 308.910156 521.035156 304.6875 521.664062 300.445312 C 522.292969 296.203125 522.820312 291.949219 523.238281 287.679688 C 523.660156 283.414062 523.976562 279.140625 524.183594 274.855469 C 524.394531 270.574219 524.5 266.289062 524.5 262 C 524.5 257.714844 524.394531 253.429688 524.183594 249.144531 C 523.976562 244.863281 523.660156 240.585938 523.238281 236.320312 C 522.820312 232.054688 522.292969 227.800781 521.664062 223.558594 C 521.035156 219.316406 520.304688 215.09375 519.464844 210.886719 C 518.628906 206.683594 517.691406 202.5 516.648438 198.339844 C 515.605469 194.179688 514.464844 190.050781 513.21875 185.945312 C 511.972656 181.84375 510.628906 177.773438 509.183594 173.734375 C 507.742188 169.699219 506.199219 165.699219 504.558594 161.738281 C 502.917969 157.777344 501.179688 153.855469 499.347656 149.980469 C 497.511719 146.105469 495.585938 142.277344 493.5625 138.496094 C 491.542969 134.714844 489.429688 130.984375 487.226562 127.304688 C 485.019531 123.628906 482.726562 120.007812 480.347656 116.441406 C 477.964844 112.875 475.496094 109.371094 472.941406 105.925781 C 470.386719 102.484375 467.75 99.105469 465.03125 95.789062 C 462.308594 92.476562 459.507812 89.230469 456.628906 86.050781 C 453.75 82.875 450.792969 79.769531 447.761719 76.738281 C 444.730469 73.707031 441.625 70.75 438.449219 67.871094 C 435.273438 64.992188 432.027344 62.191406 428.710938 59.472656 C 425.398438 56.75 422.019531 54.113281 418.574219 51.558594 C 415.128906 49.003906 411.625 46.539062 408.058594 44.15625 C 404.496094 41.773438 400.875 39.480469 397.195312 37.273438 C 393.515625 35.070312 389.789062 32.957031 386.007812 30.9375 C 382.226562 28.914062 378.394531 26.988281 374.519531 25.15625 C 370.644531 23.320312 366.726562 21.585938 362.761719 19.945312 C 358.800781 18.304688 354.800781 16.761719 350.765625 15.316406 C 346.726562 13.871094 342.65625 12.527344 338.554688 11.28125 C 334.453125 10.035156 330.320312 8.894531 326.160156 7.851562 C 322 6.808594 317.820312 5.871094 313.613281 5.035156 C 309.410156 4.199219 305.183594 3.464844 300.945312 2.835938 C 296.703125 2.207031 292.449219 1.683594 288.179688 1.261719 C 283.914062 0.839844 279.636719 0.527344 275.355469 0.316406 C 271.074219 0.105469 266.789062 0 262.5 0 Z M 170.050781 466.550781 C 170.558594 463.914062 171.179688 461.308594 171.917969 458.730469 C 172.65625 456.152344 173.507812 453.613281 174.46875 451.109375 C 175.433594 448.609375 176.503906 446.152344 177.683594 443.746094 C 178.867188 441.335938 180.148438 438.984375 181.539062 436.691406 C 182.929688 434.398438 184.417969 432.171875 186.003906 430.007812 C 187.589844 427.847656 189.269531 425.757812 191.039062 423.746094 C 192.8125 421.734375 194.667969 419.800781 196.609375 417.953125 C 198.554688 416.105469 200.574219 414.34375 202.671875 412.675781 C 204.769531 411.007812 206.9375 409.433594 209.175781 407.957031 C 211.414062 406.476562 213.714844 405.101562 216.074219 403.828125 C 218.433594 402.554688 220.84375 401.390625 223.308594 400.328125 C 225.773438 399.269531 228.277344 398.320312 230.824219 397.484375 C 233.371094 396.644531 235.953125 395.921875 238.5625 395.3125 C 241.175781 394.703125 243.808594 394.210938 246.464844 393.835938 C 249.117188 393.460938 251.785156 393.203125 254.464844 393.0625 C 257.140625 392.925781 259.820312 392.902344 262.5 393 C 265.179688 392.902344 267.859375 392.925781 270.535156 393.0625 C 273.214844 393.203125 275.882812 393.460938 278.535156 393.835938 C 281.191406 394.210938 283.824219 394.703125 286.4375 395.3125 C 289.046875 395.921875 291.628906 396.644531 294.175781 397.484375 C 296.722656 398.320312 299.226562 399.269531 301.691406 400.328125 C 304.15625 401.390625 306.566406 402.554688 308.925781 403.828125 C 311.285156 405.101562 313.585938 406.476562 315.824219 407.957031 C 318.0625 409.433594 320.230469 411.007812 322.328125 412.675781 C 324.425781 414.34375 326.445312 416.105469 328.390625 417.953125 C 330.332031 419.800781 332.1875 421.734375 333.960938 423.746094 C 335.730469 425.757812 337.410156 427.847656 338.996094 430.007812 C 340.582031 432.171875 342.070312 434.398438 343.460938 436.691406 C 344.851562 438.984375 346.132812 441.335938 347.316406 443.746094 C 348.496094 446.152344 349.566406 448.609375 350.53125 451.109375 C 351.492188 453.613281 352.34375 456.152344 353.082031 458.730469 C 353.820312 461.308594 354.441406 463.914062 354.949219 466.550781 C 351.332031 468.191406 347.675781 469.738281 343.976562 471.1875 C 340.277344 472.636719 336.542969 473.984375 332.773438 475.234375 C 329 476.484375 325.199219 477.628906 321.367188 478.675781 C 317.535156 479.722656 313.679688 480.667969 309.796875 481.507812 C 305.914062 482.347656 302.011719 483.085938 298.089844 483.71875 C 294.167969 484.351562 290.234375 484.878906 286.28125 485.300781 C 282.332031 485.722656 278.375 486.042969 274.410156 486.253906 C 270.441406 486.464844 266.472656 486.570312 262.5 486.570312 C 258.527344 486.570312 254.558594 486.464844 250.589844 486.253906 C 246.625 486.042969 242.667969 485.722656 238.71875 485.300781 C 234.765625 484.878906 230.832031 484.351562 226.910156 483.71875 C 222.988281 483.085938 219.085938 482.347656 215.203125 481.507812 C 211.320312 480.667969 207.464844 479.722656 203.632812 478.675781 C 199.800781 477.628906 196 476.484375 192.226562 475.234375 C 188.457031 473.984375 184.722656 472.636719 181.023438 471.1875 C 177.324219 469.738281 173.667969 468.191406 170.050781 466.550781 Z M 282.335938 241.976562 C 282.335938 241.976562 282.335938 240.667969 282.335938 240.105469 L 282.335938 233.742188 C 282.59375 231.457031 282.949219 229.191406 283.410156 226.9375 C 283.871094 224.683594 284.433594 222.457031 285.09375 220.257812 C 285.757812 218.058594 286.519531 215.890625 287.378906 213.757812 C 288.238281 211.625 289.191406 209.539062 290.238281 207.492188 C 291.289062 205.445312 292.429688 203.453125 293.65625 201.511719 C 294.886719 199.570312 296.203125 197.6875 297.601562 195.863281 C 299.003906 194.042969 300.484375 192.285156 302.042969 190.597656 C 303.605469 188.910156 305.238281 187.296875 306.945312 185.753906 C 308.648438 184.214844 310.421875 182.753906 312.261719 181.375 C 314.101562 179.996094 316 178.703125 317.953125 177.496094 C 319.910156 176.289062 321.917969 175.175781 323.976562 174.148438 C 326.03125 173.125 328.132812 172.195312 330.273438 171.359375 C 332.417969 170.527344 334.589844 169.792969 336.800781 169.15625 C 339.007812 168.519531 341.242188 167.980469 343.5 167.546875 C 345.757812 167.113281 348.027344 166.78125 350.316406 166.554688 C 352.601562 166.328125 354.894531 166.203125 357.195312 166.183594 C 357.070312 170.296875 356.632812 174.375 355.886719 178.421875 C 355.140625 182.46875 354.09375 186.4375 352.746094 190.324219 C 351.398438 194.210938 349.761719 197.976562 347.839844 201.613281 C 345.921875 205.253906 343.734375 208.726562 341.289062 212.035156 C 339.492188 214.324219 337.578125 216.511719 335.546875 218.597656 C 333.515625 220.6875 331.378906 222.660156 329.140625 224.519531 C 326.898438 226.375 324.566406 228.113281 322.140625 229.722656 C 319.714844 231.332031 317.210938 232.808594 314.628906 234.152344 C 312.046875 235.496094 309.398438 236.699219 306.6875 237.761719 C 303.976562 238.824219 301.21875 239.738281 298.410156 240.503906 C 295.601562 241.273438 292.761719 241.890625 289.886719 242.355469 C 287.011719 242.820312 284.121094 243.128906 281.214844 243.285156 Z M 243.597656 241.976562 C 240.765625 241.816406 237.949219 241.507812 235.148438 241.054688 C 232.347656 240.605469 229.574219 240.007812 226.835938 239.269531 C 224.097656 238.53125 221.402344 237.652344 218.753906 236.636719 C 216.105469 235.617188 213.515625 234.46875 210.984375 233.183594 C 208.457031 231.898438 206 230.484375 203.617188 228.945312 C 201.230469 227.40625 198.933594 225.75 196.722656 223.972656 C 194.507812 222.195312 192.394531 220.308594 190.375 218.316406 C 188.359375 216.320312 186.449219 214.226562 184.648438 212.035156 C 182.25 208.773438 180.109375 205.351562 178.222656 201.769531 C 176.339844 198.1875 174.730469 194.488281 173.398438 190.664062 C 172.066406 186.84375 171.023438 182.941406 170.277344 178.964844 C 169.527344 174.988281 169.078125 170.976562 168.929688 166.933594 C 173.027344 167.042969 177.097656 167.46875 181.132812 168.207031 C 185.167969 168.945312 189.121094 169.992188 192.996094 171.339844 C 196.867188 172.691406 200.617188 174.328125 204.238281 176.257812 C 207.859375 178.183594 211.308594 180.378906 214.589844 182.839844 C 216.617188 184.503906 218.558594 186.257812 220.414062 188.109375 C 222.269531 189.960938 224.03125 191.898438 225.699219 193.917969 C 227.367188 195.941406 228.933594 198.039062 230.398438 200.210938 C 231.863281 202.382812 233.21875 204.625 234.46875 206.929688 C 235.714844 209.234375 236.851562 211.59375 237.871094 214.007812 C 238.890625 216.421875 239.792969 218.878906 240.574219 221.378906 C 241.355469 223.882812 242.015625 226.414062 242.550781 228.980469 C 243.085938 231.546875 243.5 234.132812 243.785156 236.738281 C 243.785156 238.796875 243.785156 240.855469 242.664062 243.285156 Z M 389.382812 447.273438 C 388.480469 444.296875 387.472656 441.359375 386.355469 438.457031 C 385.238281 435.554688 384.019531 432.695312 382.699219 429.878906 C 381.375 427.066406 379.949219 424.304688 378.425781 421.59375 C 376.902344 418.882812 375.285156 416.230469 373.566406 413.636719 C 371.851562 411.042969 370.042969 408.515625 368.144531 406.054688 C 366.246094 403.59375 364.257812 401.203125 362.1875 398.882812 C 360.113281 396.566406 357.957031 394.328125 355.722656 392.164062 C 353.488281 390.003906 351.175781 387.925781 348.792969 385.933594 C 346.40625 383.9375 343.949219 382.03125 341.425781 380.21875 C 338.902344 378.402344 336.3125 376.679688 333.664062 375.050781 C 331.015625 373.421875 328.3125 371.894531 325.550781 370.460938 C 322.789062 369.03125 319.980469 367.699219 317.125 366.472656 C 314.269531 365.242188 311.371094 364.121094 308.433594 363.101562 C 305.492188 362.085938 302.523438 361.175781 299.519531 360.371094 C 296.511719 359.570312 293.484375 358.878906 290.429688 358.296875 C 287.375 357.714844 284.304688 357.242188 281.214844 356.882812 L 281.214844 280.714844 C 285.488281 280.542969 289.738281 280.140625 293.96875 279.511719 C 298.199219 278.882812 302.382812 278.027344 306.519531 276.949219 C 310.65625 275.875 314.726562 274.578125 318.726562 273.066406 C 322.726562 271.550781 326.632812 269.828125 330.449219 267.898438 C 334.261719 265.964844 337.964844 263.835938 341.550781 261.507812 C 345.136719 259.179688 348.589844 256.667969 351.910156 253.96875 C 355.226562 251.273438 358.390625 248.402344 361.402344 245.367188 C 364.410156 242.332031 367.25 239.140625 369.921875 235.800781 C 372.257812 232.652344 374.433594 229.394531 376.453125 226.03125 C 378.472656 222.667969 380.320312 219.214844 382.003906 215.671875 C 383.683594 212.125 385.1875 208.507812 386.515625 204.816406 C 387.84375 201.125 388.984375 197.378906 389.945312 193.578125 C 390.90625 189.773438 391.679688 185.933594 392.265625 182.054688 C 392.851562 178.175781 393.246094 174.277344 393.449219 170.363281 C 393.652344 166.445312 393.667969 162.527344 393.488281 158.609375 C 393.308594 154.691406 392.9375 150.789062 392.378906 146.90625 C 392.238281 145.910156 392.015625 144.929688 391.714844 143.96875 C 391.417969 143.003906 391.042969 142.074219 390.59375 141.171875 C 390.140625 140.269531 389.621094 139.410156 389.035156 138.59375 C 388.445312 137.773438 387.792969 137.007812 387.082031 136.296875 C 386.367188 135.585938 385.601562 134.933594 384.785156 134.34375 C 383.96875 133.753906 383.109375 133.234375 382.207031 132.785156 C 381.304688 132.335938 380.371094 131.960938 379.410156 131.660156 C 378.449219 131.363281 377.46875 131.140625 376.46875 131 C 372.589844 130.445312 368.6875 130.078125 364.769531 129.90625 C 360.851562 129.730469 356.9375 129.746094 353.019531 129.949219 C 349.101562 130.15625 345.207031 130.554688 341.328125 131.140625 C 337.449219 131.726562 333.609375 132.5 329.808594 133.460938 C 326.007812 134.421875 322.257812 135.5625 318.570312 136.890625 C 314.878906 138.214844 311.261719 139.71875 307.714844 141.394531 C 304.171875 143.074219 300.71875 144.921875 297.351562 146.9375 C 293.988281 148.953125 290.730469 151.125 287.578125 153.457031 C 277.613281 161.164062 269.253906 170.335938 262.5 180.96875 C 255.628906 170.199219 247.144531 160.90625 237.046875 153.082031 C 233.871094 150.75 230.589844 148.574219 227.199219 146.5625 C 223.808594 144.550781 220.328125 142.710938 216.757812 141.039062 C 213.1875 139.367188 209.542969 137.875 205.828125 136.558594 C 202.109375 135.246094 198.339844 134.117188 194.511719 133.171875 C 190.683594 132.226562 186.820312 131.46875 182.917969 130.902344 C 179.015625 130.339844 175.097656 129.964844 171.160156 129.78125 C 167.222656 129.597656 163.285156 129.609375 159.347656 129.8125 C 155.410156 130.015625 151.492188 130.414062 147.59375 131 C 146.601562 131.128906 145.625 131.332031 144.664062 131.617188 C 143.703125 131.898438 142.773438 132.257812 141.871094 132.691406 C 140.96875 133.125 140.105469 133.625 139.285156 134.199219 C 138.460938 134.769531 137.691406 135.402344 136.972656 136.097656 C 136.25 136.792969 135.589844 137.542969 134.988281 138.34375 C 134.390625 139.144531 133.855469 139.988281 133.390625 140.875 C 132.925781 141.761719 132.535156 142.679688 132.21875 143.628906 C 131.902344 144.578125 131.660156 145.546875 131.5 146.535156 C 130.917969 150.414062 130.53125 154.316406 130.335938 158.238281 C 130.140625 162.15625 130.140625 166.078125 130.335938 169.996094 C 130.527344 173.917969 130.917969 177.820312 131.496094 181.703125 C 132.078125 185.582031 132.847656 189.425781 133.808594 193.234375 C 134.769531 197.039062 135.917969 200.789062 137.25 204.480469 C 138.585938 208.171875 140.097656 211.789062 141.789062 215.332031 C 143.480469 218.871094 145.339844 222.324219 147.375 225.679688 C 149.40625 229.039062 151.601562 232.285156 153.957031 235.425781 C 156.652344 238.8125 159.523438 242.042969 162.570312 245.121094 C 165.617188 248.195312 168.816406 251.097656 172.175781 253.828125 C 175.535156 256.558594 179.03125 259.101562 182.664062 261.457031 C 186.296875 263.808594 190.046875 265.960938 193.910156 267.910156 C 197.777344 269.855469 201.734375 271.59375 205.789062 273.113281 C 209.839844 274.636719 213.960938 275.933594 218.15625 277.011719 C 222.347656 278.085938 226.585938 278.933594 230.871094 279.554688 C 235.15625 280.171875 239.460938 280.5625 243.785156 280.714844 L 243.785156 357.257812 C 240.703125 357.613281 237.636719 358.078125 234.585938 358.65625 C 231.539062 359.234375 228.511719 359.921875 225.511719 360.71875 C 222.515625 361.519531 219.546875 362.421875 216.613281 363.433594 C 213.679688 364.445312 210.785156 365.5625 207.933594 366.785156 C 205.078125 368.003906 202.273438 369.328125 199.515625 370.753906 C 196.757812 372.179688 194.058594 373.699219 191.410156 375.320312 C 188.761719 376.941406 186.179688 378.65625 183.65625 380.460938 C 181.132812 382.269531 178.675781 384.167969 176.292969 386.152344 C 173.90625 388.136719 171.59375 390.207031 169.359375 392.359375 C 167.125 394.511719 164.96875 396.742188 162.894531 399.050781 C 160.820312 401.359375 158.832031 403.738281 156.929688 406.191406 C 155.027344 408.644531 153.21875 411.164062 151.5 413.746094 C 149.777344 416.332031 148.15625 418.972656 146.628906 421.675781 C 145.097656 424.375 143.671875 427.128906 142.34375 429.933594 C 141.011719 432.738281 139.789062 435.589844 138.664062 438.480469 C 137.542969 441.375 136.527344 444.304688 135.617188 447.273438 C 132.347656 445.035156 129.136719 442.707031 125.988281 440.300781 C 122.84375 437.890625 119.761719 435.398438 116.746094 432.824219 C 113.730469 430.253906 110.785156 427.601562 107.910156 424.875 C 105.035156 422.144531 102.230469 419.34375 99.503906 416.464844 C 96.777344 413.589844 94.128906 410.640625 91.558594 407.625 C 88.988281 404.605469 86.5 401.523438 84.089844 398.375 C 81.683594 395.226562 79.363281 392.015625 77.125 388.742188 C 74.886719 385.46875 72.738281 382.140625 70.675781 378.753906 C 68.613281 375.371094 66.644531 371.929688 64.765625 368.441406 C 62.886719 364.949219 61.101562 361.414062 59.410156 357.828125 C 57.71875 354.242188 56.121094 350.617188 54.621094 346.949219 C 53.121094 343.277344 51.71875 339.570312 50.417969 335.828125 C 49.113281 332.085938 47.910156 328.308594 46.804688 324.503906 C 45.703125 320.695312 44.699219 316.863281 43.800781 313 C 42.898438 309.140625 42.101562 305.257812 41.40625 301.355469 C 40.710938 297.453125 40.121094 293.535156 39.632812 289.601562 C 39.144531 285.667969 38.761719 281.722656 38.484375 277.769531 C 38.203125 273.816406 38.03125 269.859375 37.960938 265.894531 C 37.894531 261.929688 37.929688 257.96875 38.070312 254.007812 C 38.210938 250.046875 38.457031 246.089844 38.804688 242.140625 C 39.15625 238.195312 39.609375 234.257812 40.167969 230.332031 C 40.726562 226.410156 41.390625 222.5 42.15625 218.613281 C 42.921875 214.722656 43.789062 210.855469 44.757812 207.011719 C 45.730469 203.171875 46.800781 199.355469 47.972656 195.570312 C 49.144531 191.78125 50.417969 188.027344 51.789062 184.308594 C 53.15625 180.589844 54.625 176.910156 56.191406 173.269531 C 57.757812 169.625 59.417969 166.027344 61.175781 162.476562 C 62.933594 158.921875 64.78125 155.417969 66.722656 151.960938 C 68.664062 148.507812 70.695312 145.105469 72.820312 141.757812 C 74.941406 138.40625 77.152344 135.117188 79.445312 131.886719 C 81.742188 128.65625 84.125 125.488281 86.585938 122.382812 C 89.050781 119.277344 91.597656 116.242188 94.222656 113.269531 C 96.84375 110.300781 99.546875 107.402344 102.324219 104.574219 C 105.105469 101.746094 107.957031 98.996094 110.878906 96.320312 C 113.804688 93.640625 116.796875 91.046875 119.859375 88.527344 C 122.917969 86.007812 126.046875 83.574219 129.238281 81.222656 C 132.425781 78.871094 135.675781 76.605469 138.988281 74.425781 C 142.296875 72.242188 145.664062 70.152344 149.085938 68.152344 C 152.507812 66.148438 155.980469 64.238281 159.5 62.421875 C 163.023438 60.601562 166.59375 58.878906 170.207031 57.25 C 173.820312 55.621094 177.472656 54.089844 181.167969 52.652344 C 184.863281 51.21875 188.59375 49.882812 192.359375 48.644531 C 196.125 47.40625 199.921875 46.265625 203.746094 45.230469 C 207.574219 44.191406 211.421875 43.257812 215.296875 42.425781 C 219.175781 41.589844 223.070312 40.863281 226.984375 40.234375 C 230.898438 39.609375 234.824219 39.085938 238.765625 38.664062 C 242.707031 38.246094 246.65625 37.933594 250.617188 37.722656 C 254.574219 37.511719 258.535156 37.410156 262.5 37.410156 C 266.464844 37.410156 270.425781 37.511719 274.382812 37.722656 C 278.34375 37.933594 282.292969 38.246094 286.234375 38.664062 C 290.175781 39.085938 294.101562 39.609375 298.015625 40.234375 C 301.929688 40.863281 305.824219 41.589844 309.703125 42.425781 C 313.578125 43.257812 317.425781 44.191406 321.253906 45.230469 C 325.078125 46.265625 328.875 47.40625 332.640625 48.644531 C 336.40625 49.882812 340.136719 51.21875 343.832031 52.652344 C 347.527344 54.089844 351.179688 55.621094 354.792969 57.25 C 358.40625 58.878906 361.976562 60.601562 365.5 62.421875 C 369.019531 64.238281 372.492188 66.148438 375.914062 68.152344 C 379.335938 70.152344 382.703125 72.242188 386.011719 74.425781 C 389.324219 76.605469 392.574219 78.871094 395.761719 81.222656 C 398.953125 83.574219 402.082031 86.007812 405.140625 88.527344 C 408.203125 91.046875 411.195312 93.640625 414.121094 96.320312 C 417.042969 98.996094 419.894531 101.746094 422.675781 104.574219 C 425.453125 107.402344 428.152344 110.300781 430.777344 113.269531 C 433.402344 116.242188 435.949219 119.277344 438.414062 122.382812 C 440.875 125.488281 443.257812 128.65625 445.554688 131.886719 C 447.847656 135.117188 450.058594 138.40625 452.179688 141.757812 C 454.300781 145.105469 456.335938 148.507812 458.277344 151.960938 C 460.21875 155.417969 462.066406 158.921875 463.824219 162.476562 C 465.582031 166.027344 467.242188 169.625 468.808594 173.269531 C 470.375 176.910156 471.84375 180.589844 473.210938 184.308594 C 474.582031 188.027344 475.855469 191.78125 477.027344 195.570312 C 478.199219 199.355469 479.269531 203.171875 480.242188 207.011719 C 481.210938 210.855469 482.078125 214.722656 482.84375 218.613281 C 483.609375 222.5 484.273438 226.410156 484.832031 230.332031 C 485.390625 234.257812 485.84375 238.195312 486.195312 242.140625 C 486.542969 246.089844 486.789062 250.046875 486.929688 254.007812 C 487.070312 257.96875 487.105469 261.929688 487.039062 265.894531 C 486.96875 269.859375 486.796875 273.816406 486.515625 277.769531 C 486.238281 281.722656 485.855469 285.667969 485.367188 289.601562 C 484.878906 293.535156 484.289062 297.453125 483.59375 301.355469 C 482.898438 305.257812 482.101562 309.140625 481.199219 313 C 480.300781 316.863281 479.296875 320.695312 478.195312 324.503906 C 477.089844 328.308594 475.886719 332.085938 474.582031 335.828125 C 473.28125 339.570312 471.878906 343.277344 470.378906 346.949219 C 468.878906 350.617188 467.28125 354.242188 465.589844 357.828125 C 463.898438 361.414062 462.113281 364.949219 460.234375 368.441406 C 458.355469 371.929688 456.386719 375.371094 454.324219 378.753906 C 452.261719 382.140625 450.113281 385.46875 447.875 388.742188 C 445.636719 392.015625 443.316406 395.226562 440.910156 398.375 C 438.5 401.523438 436.011719 404.605469 433.441406 407.625 C 430.871094 410.640625 428.222656 413.589844 425.496094 416.464844 C 422.769531 419.34375 419.964844 422.144531 417.089844 424.875 C 414.214844 427.601562 411.269531 430.253906 408.253906 432.824219 C 405.238281 435.398438 402.15625 437.890625 399.011719 440.300781 C 395.863281 442.707031 392.652344 445.035156 389.382812 447.273438 Z M 389.382812 447.273438 " fill-opacity="1" fill-rule="nonzero"/></g></svg>