<svg xmlns="http://www.w3.org/2000/svg" xmlns:xlink="http://www.w3.org/1999/xlink" width="700" zoomAndPan="magnify" viewBox="0 0 525 525.000007" height="700" preserveAspectRatio="xMidYMid meet" version="1.0"><defs><clipPath id="af1b5758ca"><path d="M 0.5 0 L 524.5 0 L 524.5 524 L 0.5 524 Z M 0.5 0 " clip-rule="nonzero"/></clipPath></defs><g clip-path="url(#af1b5758ca)"><path fill="#f87e50" d="M 156.589844 129.664062 L 103.632812 76.707031 C 96.332031 69.40625 84.5625 69.40625 77.261719 76.707031 C 69.960938 84.007812 69.960938 95.78125 77.261719 103.082031 L 130.214844 156.039062 C 133.777344 159.773438 138.632812 161.660156 143.488281 161.660156 C 148.171875 161.660156 153.027344 159.773438 156.589844 156.039062 C 163.890625 148.773438 163.890625 136.964844 156.589844 129.664062 Z M 94.097656 243.261719 L 19.238281 243.261719 C 8.933594 243.261719 0.515625 251.679688 0.515625 261.984375 C 0.515625 272.289062 8.933594 280.707031 19.238281 280.707031 L 94.097656 280.707031 C 104.402344 280.707031 112.820312 272.289062 112.820312 261.984375 C 112.820312 251.679688 104.367188 243.261719 94.097656 243.261719 Z M 156.589844 367.894531 C 149.289062 360.59375 137.515625 360.59375 130.214844 367.894531 L 77.261719 420.851562 C 69.960938 428.152344 69.960938 439.921875 77.261719 447.222656 C 80.996094 450.785156 85.679688 452.636719 90.535156 452.636719 C 95.214844 452.636719 100.070312 450.75 103.632812 447.222656 L 156.589844 394.269531 C 163.890625 387.003906 163.890625 375.195312 156.589844 367.894531 Z M 262.5 411.699219 C 252.195312 411.699219 243.777344 420.117188 243.777344 430.421875 L 243.777344 505.277344 C 243.777344 515.582031 252.195312 524 262.5 524 C 272.804688 524 281.222656 515.582031 281.222656 505.277344 L 281.222656 430.421875 C 281.222656 420.117188 272.804688 411.699219 262.5 411.699219 Z M 447.773438 420.851562 L 394.820312 367.894531 C 387.519531 360.59375 375.746094 360.59375 368.445312 367.894531 C 361.144531 375.195312 361.144531 386.96875 368.445312 394.269531 L 421.402344 447.222656 C 424.964844 450.785156 429.820312 452.636719 434.5 452.636719 C 439.355469 452.636719 444.035156 450.75 447.773438 447.222656 C 455.074219 439.957031 455.074219 428.152344 447.773438 420.851562 Z M 505.761719 243.261719 L 430.902344 243.261719 C 420.597656 243.261719 412.179688 251.679688 412.179688 261.984375 C 412.179688 272.289062 420.597656 280.707031 430.902344 280.707031 L 505.761719 280.707031 C 516.066406 280.707031 524.484375 272.289062 524.484375 261.984375 C 524.484375 251.679688 516.066406 243.261719 505.761719 243.261719 Z M 447.773438 76.707031 C 440.472656 69.40625 428.703125 69.40625 421.402344 76.707031 L 368.445312 129.664062 C 361.144531 136.964844 361.144531 148.738281 368.445312 156.039062 C 372.007812 159.773438 376.863281 161.660156 381.546875 161.660156 C 386.402344 161.660156 391.292969 159.773438 394.820312 156.039062 L 447.773438 103.082031 C 455.074219 95.816406 455.074219 84.007812 447.773438 76.707031 Z M 262.5 0 C 252.195312 0 243.777344 8.417969 243.777344 18.722656 L 243.777344 93.582031 C 243.777344 103.886719 252.195312 112.304688 262.5 112.304688 C 272.804688 112.304688 281.222656 103.886719 281.222656 93.582031 L 281.222656 18.722656 C 281.222656 8.417969 272.804688 0 262.5 0 Z M 393.492188 261.984375 C 393.492188 334.394531 334.914062 392.976562 262.5 392.976562 C 190.085938 392.976562 131.507812 334.394531 131.507812 261.984375 C 131.507812 189.570312 190.085938 130.992188 262.5 130.992188 C 334.914062 130.992188 393.492188 189.570312 393.492188 261.984375 Z M 393.492188 261.984375 " fill-opacity="1" fill-rule="nonzero"/></g></svg>