<?xml version="1.0" standalone="no"?>
<!DOCTYPE svg PUBLIC "-//W3C//DTD SVG 20010904//EN"
 "http://www.w3.org/TR/2001/REC-SVG-20010904/DTD/svg10.dtd">
<svg version="1.0" xmlns="http://www.w3.org/2000/svg"
 width="1024.000000pt" height="1024.000000pt" viewBox="0 0 1024.000000 1024.000000"
 preserveAspectRatio="xMidYMid meet">

<g transform="translate(0.000000,1024.000000) scale(0.100000,-0.100000)"
fill="#000000" stroke="none">
<path d="M1714 7228 c-61 -56 -88 -110 -88 -175 0 -38 6 -60 21 -82 20 -26 21
-35 13 -86 -5 -32 -11 -59 -12 -59 -2 -1 -40 -7 -86 -14 -95 -13 -261 -66
-354 -113 -232 -117 -443 -340 -526 -556 -93 -240 -80 -538 32 -761 123 -244
349 -430 641 -528 102 -34 209 -54 496 -94 296 -41 447 -96 555 -204 91 -92
109 -136 109 -271 0 -99 -3 -116 -27 -168 -37 -79 -119 -157 -212 -202 -40
-19 -88 -38 -106 -42 -29 -5 -32 -4 -27 11 4 10 10 35 13 57 5 32 13 43 45 61
55 31 77 89 60 163 -34 150 -129 166 -195 33 -33 -66 -33 -110 0 -166 26 -45
27 -50 8 -146 l-6 -29 -147 6 c-219 9 -370 52 -495 141 -92 66 -179 179 -211
277 -19 55 -32 63 -71 43 -196 -102 -487 -264 -506 -283 -17 -16 -17 -18 3
-56 93 -176 315 -389 519 -498 213 -114 374 -156 630 -164 225 -7 356 14 555
86 128 46 141 49 204 44 63 -5 69 -4 85 18 9 13 16 42 16 64 0 39 4 45 65 94
210 171 343 422 363 686 14 186 -16 349 -92 491 l-33 62 66 16 c124 30 180 95
124 142 l-25 21 27 29 c57 61 81 146 55 195 -15 27 -84 26 -130 -2 -19 -12
-36 -17 -37 -12 -17 49 -72 60 -122 24 -40 -29 -88 -107 -102 -167 l-12 -50
-66 44 c-216 145 -454 219 -785 244 -83 6 -153 13 -155 15 -2 1 12 27 32 57
30 45 42 55 74 60 21 4 49 14 61 23 36 22 62 89 62 158 0 111 -41 145 -125
105 -85 -41 -131 -133 -105 -210 12 -36 11 -41 -11 -67 -13 -16 -33 -48 -43
-71 -16 -36 -36 -56 -36 -36 0 3 -5 36 -11 74 -10 66 -9 71 14 102 53 71 42
146 -32 220 -73 73 -119 75 -153 7 -21 -39 -24 -148 -7 -182 16 -31 61 -77 75
-77 16 0 23 -20 31 -87 l6 -56 -39 7 c-72 13 -163 63 -223 123 -71 72 -101
142 -108 259 -10 149 48 273 167 356 120 83 295 126 462 114 117 -8 167 -21
263 -67 140 -67 235 -163 302 -306 18 -40 38 -73 44 -73 6 0 77 38 157 83 81
46 198 112 259 146 62 35 116 67 119 72 11 19 -6 58 -68 151 -120 179 -294
324 -496 413 -92 41 -97 44 -94 72 2 15 5 67 8 116 8 121 8 121 -129 115
l-109 -5 -29 30 c-35 35 -67 31 -112 -11 -31 -29 -77 -111 -77 -137 0 -12 -16
-15 -96 -15 l-97 0 7 48 c3 26 10 48 14 50 33 11 75 48 92 81 44 88 4 261 -62
261 -10 0 -39 -19 -64 -42z m66 -129 c0 -65 -16 -92 -51 -87 -44 6 -33 91 19
151 22 25 32 5 32 -64z m281 -247 c-20 -41 -73 -112 -85 -112 -2 0 4 32 14 70
18 70 30 93 59 118 13 11 17 9 25 -8 7 -15 3 -33 -13 -68z m246 -9 c-13 -129
-85 -196 -213 -197 -91 -1 -96 10 -30 78 34 35 60 71 67 96 7 22 19 46 26 52
15 12 74 24 127 27 l29 1 -6 -57z m-667 -157 c0 -69 -39 -228 -64 -265 -75
-107 -104 -137 -168 -174 -37 -21 -92 -65 -124 -100 -84 -90 -121 -178 -139
-328 -5 -40 -11 -50 -50 -78 -24 -17 -54 -48 -67 -69 l-23 -37 -3 160 c-1 88
0 170 3 183 3 12 61 81 128 153 181 193 221 261 247 419 6 41 15 84 20 96 10
26 85 50 233 73 4 0 7 -14 7 -33z m260 23 c0 -23 -22 -48 -77 -89 -32 -24 -73
-57 -90 -73 -36 -34 -48 -32 -35 4 5 13 13 57 17 97 l7 72 89 0 c56 0 89 -4
89 -11z m-584 -121 c-11 -74 -46 -165 -85 -225 -37 -57 -206 -243 -220 -243
-13 0 -32 282 -20 296 47 57 282 212 323 214 5 0 6 -19 2 -42z m1042 6 c42
-14 88 -34 102 -45 l25 -19 -25 -20 c-14 -11 -68 -49 -121 -85 l-96 -66 -259
-4 c-142 -2 -283 -9 -313 -14 -29 -6 -56 -11 -59 -11 -22 0 182 175 266 229
44 28 58 32 90 27 20 -4 73 -9 117 -12 71 -4 86 -2 130 20 28 13 54 25 58 25
4 1 42 -10 85 -25z m268 -148 c66 -49 184 -166 168 -166 -6 0 -55 6 -110 14
-54 8 -121 17 -149 20 -151 16 -176 19 -173 27 4 10 189 149 199 149 4 0 33
-20 65 -44z m-1699 -386 l4 -215 -26 50 c-15 28 -51 83 -82 122 l-55 72 25 55
c14 30 44 83 68 117 41 61 43 62 52 38 6 -13 12 -121 14 -239z m1363 209 c83
-15 105 -27 173 -89 49 -45 137 -165 137 -188 0 -5 -15 -16 -34 -24 l-34 -16
-47 68 c-58 85 -152 175 -242 230 -38 24 -57 40 -43 37 14 -3 54 -11 90 -18z
m405 -55 c116 -19 207 -44 202 -57 -1 -5 -52 -38 -112 -72 l-109 -63 -49 72
c-27 39 -62 85 -78 101 -48 51 -51 51 146 19z m-1874 -324 c63 -114 99 -220
109 -320 5 -52 10 -101 10 -109 0 -8 -24 13 -54 45 -30 33 -75 71 -100 85 -41
22 -47 29 -57 75 -12 55 -8 284 7 318 7 18 9 17 31 -10 13 -16 37 -54 54 -84z
m808 -177 c33 -40 38 -62 21 -94 -14 -26 -45 -24 -64 3 -23 33 -20 128 4 128
5 0 22 -17 39 -37z m319 -59 c-6 -66 -36 -106 -66 -88 -9 6 -18 25 -20 43 -3
25 4 39 31 66 50 50 60 46 55 -21z m-788 12 c0 -7 18 -49 39 -93 71 -140 185
-231 351 -279 l75 -22 3 -186 c2 -172 1 -186 -15 -186 -46 0 -263 64 -336 99
-128 60 -164 91 -202 174 -39 88 -54 145 -62 246 -5 71 -4 80 25 137 40 79
122 153 122 110z m-293 -253 c49 -65 113 -184 113 -211 0 -15 -85 78 -129 142
-28 40 -81 146 -81 162 0 16 53 -35 97 -93z m993 -153 c0 -5 -4 -10 -9 -10
-15 0 -113 -92 -133 -125 l-18 -30 0 88 0 87 80 0 c47 0 80 -4 80 -10z m343
-50 c4 0 7 -56 7 -125 0 -148 -4 -151 -78 -70 -53 58 -82 123 -82 186 l0 37
73 -14 c39 -8 75 -14 80 -14z m-188 -160 c33 -65 84 -122 146 -162 40 -25 49
-37 49 -60 0 -33 3 -33 -95 -8 -43 11 -142 29 -219 40 -211 30 -195 25 -189
68 9 68 51 137 121 204 37 35 83 71 102 80 l35 17 12 -64 c7 -35 24 -87 38
-115z m958 148 c-9 -49 -31 -92 -68 -135 l-34 -38 -1 33 c0 39 22 94 56 139
33 44 56 44 47 1z m166 -1 c-30 -59 -92 -117 -124 -117 -9 0 24 73 43 94 23
26 74 56 84 50 4 -3 3 -15 -3 -27z m-764 -31 c42 -18 42 -27 -8 -116 -41 -74
-66 -110 -78 -110 -5 0 -9 55 -9 126 l0 127 29 -6 c17 -4 46 -13 66 -21z m213
-109 c6 -30 -182 -156 -203 -135 -3 3 9 29 27 59 18 30 41 73 52 96 l18 42 52
-23 c28 -12 52 -30 54 -39z m496 -62 c-3 -28 -164 -64 -164 -36 0 25 64 52
115 49 28 -2 49 -7 49 -13z m-335 -32 c23 -20 41 -40 41 -44 0 -13 -54 -98
-62 -99 -5 0 -8 20 -8 43 0 24 -6 65 -14 90 -8 26 -10 47 -6 47 5 0 27 -16 49
-37z m-107 -55 c21 -85 16 -347 -9 -428 -16 -51 -22 -61 -28 -45 -4 11 -20 48
-36 82 -35 73 -139 175 -224 219 -50 26 -55 32 -53 58 3 28 6 30 84 47 88 19
137 40 199 88 22 17 43 31 47 31 3 0 12 -24 20 -52z m230 -102 c28 -46 27 -56
-4 -56 -10 0 -41 -11 -68 -25 -27 -14 -51 -25 -54 -25 -2 0 16 34 41 75 25 41
49 75 52 75 3 0 18 -20 33 -44z m69 -161 c11 -25 21 -71 22 -101 l2 -56 -51
-14 c-85 -22 -167 -53 -196 -74 -15 -11 -29 -20 -31 -20 -3 0 8 48 22 106 27
105 28 107 75 142 41 30 104 60 129 62 4 0 17 -20 28 -45z m-21 -267 c0 -29
-62 -140 -101 -183 -48 -52 -136 -101 -199 -111 -39 -6 -41 -6 -31 12 6 10 20
45 32 77 34 94 88 144 208 193 63 26 91 30 91 12z m40 -180 c-24 -100 -79
-222 -134 -297 -19 -25 -75 -86 -124 -135 l-90 -88 -30 45 c-33 46 -101 98
-158 119 l-33 12 62 59 c58 55 68 60 153 82 50 13 115 35 144 50 74 38 159
121 195 193 17 33 32 58 34 56 2 -2 -6 -45 -19 -96z m-770 -68 c0 -48 -13 -70
-41 -70 -35 0 -39 68 -8 120 20 32 22 33 35 15 8 -10 14 -40 14 -65z m-1100
-16 c0 -18 11 -71 25 -119 14 -48 24 -90 21 -92 -8 -8 -71 17 -104 41 -40 29
-68 65 -87 110 l-15 35 72 40 c78 43 88 41 88 -15z m115 -36 c37 -56 45 -101
22 -132 -13 -17 -15 -16 -29 20 -9 22 -19 59 -23 84 -3 25 -9 53 -11 63 -9 30
4 19 41 -35z m-318 -70 c47 -96 134 -163 250 -192 46 -12 50 -15 90 -90 45
-84 76 -128 137 -193 21 -24 34 -43 29 -43 -20 0 -227 111 -299 161 -88 62
-217 185 -279 270 -25 34 -45 65 -45 69 0 9 71 59 86 59 5 1 19 -18 31 -41z
m482 -93 c27 -19 83 -51 125 -70 81 -38 93 -48 48 -39 -37 8 -49 -9 -66 -89
-15 -71 -9 -133 20 -189 14 -30 10 -27 -41 22 -65 63 -131 151 -169 227 -29
59 -32 85 -12 102 8 6 19 25 26 41 7 17 14 30 16 30 2 0 26 -16 53 -35z m1021
-146 c95 -24 178 -126 180 -221 0 -25 -2 -26 -29 -18 -62 17 -122 50 -165 90
-47 43 -86 111 -86 148 0 23 13 23 100 1z m-497 -6 c86 -3 157 -9 157 -13 0
-4 -10 -15 -21 -26 -35 -30 -148 -173 -177 -222 l-26 -45 -16 74 c-21 95 -44
142 -97 198 -24 24 -43 47 -43 49 0 2 15 1 33 -2 17 -4 103 -9 190 -13z m327
-25 c0 -31 53 -121 97 -167 l49 -51 -80 -25 c-45 -13 -110 -31 -146 -39 -85
-19 -240 -32 -240 -19 0 5 39 58 88 118 60 75 107 123 150 152 67 45 82 51 82
31z m-586 -46 c21 -15 51 -49 67 -77 28 -51 58 -169 46 -181 -16 -17 -94 20
-137 65 -47 48 -70 102 -70 164 0 75 19 80 94 29z"/>
<path d="M5383 7106 c-82 -26 -143 -92 -143 -154 0 -24 -11 -41 -50 -78 -32
-30 -64 -74 -87 -121 l-37 -74 -45 3 -46 3 -3 58 c-2 34 1 57 7 57 17 0 41 57
41 97 -1 94 -107 218 -170 198 -31 -10 -54 -74 -58 -164 l-4 -83 56 -53 c48
-45 56 -59 56 -89 0 -33 -3 -36 -27 -36 -16 0 -61 -8 -102 -17 -72 -17 -74
-17 -85 2 -22 38 -92 109 -135 137 -66 41 -92 37 -157 -24 -70 -66 -111 -149
-127 -259 l-12 -82 -77 -78 -78 -79 -20 40 c-18 36 -19 45 -9 80 23 75 -33
175 -122 221 -82 41 -114 10 -113 -110 0 -113 41 -174 127 -188 36 -5 41 -10
67 -65 l28 -59 -34 -67 c-35 -68 -74 -203 -74 -254 0 -15 -3 -28 -7 -27 -5 0
-23 31 -41 70 -62 130 -180 218 -304 227 -65 5 -71 -1 -82 -83 -14 -118 38
-261 124 -338 26 -24 95 -67 152 -95 57 -28 110 -57 118 -64 12 -9 22 -66 38
-208 13 -107 25 -217 28 -245 4 -27 4 -48 1 -45 -3 3 -24 52 -47 110 -66 167
-118 235 -218 285 -62 31 -175 45 -212 25 -21 -11 -22 -16 -17 -89 13 -192
122 -325 312 -385 44 -14 93 -28 108 -31 15 -3 43 -20 62 -38 29 -27 39 -49
64 -143 17 -61 39 -134 51 -163 11 -28 20 -54 20 -56 0 -3 -108 -59 -240 -125
-214 -107 -240 -123 -240 -144 0 -28 57 -166 102 -246 52 -93 167 -241 252
-325 177 -176 449 -316 729 -377 151 -33 439 -33 585 0 216 48 425 139 567
245 38 29 127 108 197 176 l128 124 -2 596 -3 596 -640 0 -640 0 -3 -229 c-2
-177 1 -231 10 -238 7 -4 133 -8 281 -8 l267 0 0 -204 0 -204 -53 -30 c-89
-50 -177 -167 -177 -235 0 -48 -8 -50 -156 -44 -77 3 -166 13 -199 21 -259 69
-465 289 -570 610 -21 64 -39 102 -48 104 -9 2 -30 -4 -47 -13 -24 -12 -31
-13 -35 -3 -25 70 -75 268 -75 297 0 26 9 51 29 78 25 35 42 45 118 72 110 40
141 59 197 122 69 76 90 140 90 277 1 102 -1 115 -19 128 -23 18 -61 13 -144
-18 -73 -27 -166 -120 -205 -202 -16 -32 -39 -104 -53 -160 -37 -151 -46 -145
-40 24 5 162 29 264 92 395 46 96 75 120 189 160 53 19 116 45 140 59 51 30
113 95 150 158 22 37 38 50 94 76 37 17 85 35 107 41 59 16 241 14 308 -4 126
-33 245 -114 329 -224 48 -64 128 -216 128 -244 0 -8 9 -22 20 -32 19 -17 27
-15 272 99 139 64 261 126 270 137 17 20 16 24 -26 108 -61 120 -157 261 -235
343 -169 180 -410 305 -673 349 -43 7 -78 18 -78 24 0 16 52 95 87 132 26 28
34 31 70 26 58 -8 107 12 147 59 55 64 84 176 54 206 -15 15 -71 14 -125 -2z
m57 -77 c0 -24 -46 -92 -71 -105 -22 -11 -29 -11 -45 1 -17 13 -18 16 -4 41 8
15 35 38 59 51 49 26 61 28 61 12z m-526 -49 c26 -31 43 -90 31 -109 -3 -6
-15 -16 -25 -21 -44 -23 -75 57 -54 138 8 29 17 28 48 -8z m-382 -271 c43 -28
98 -90 98 -110 0 -4 -30 -16 -67 -28 -38 -11 -103 -38 -145 -60 l-78 -39 0 28
c0 49 42 140 88 191 24 27 46 49 50 49 3 0 27 -14 54 -31z m388 -190 c0 -28
-4 -49 -8 -47 -51 19 -142 65 -142 70 0 4 21 10 48 13 26 3 54 8 62 9 38 9 40
6 40 -45z m290 40 c91 -14 262 -73 347 -119 188 -101 359 -276 460 -470 22
-43 24 -53 12 -61 -20 -12 -336 -159 -343 -159 -3 0 -20 28 -37 63 -64 127
-148 224 -287 335 -23 18 -69 69 -103 113 -69 92 -103 114 -125 84 -20 -26
-18 -30 22 -75 20 -22 35 -43 32 -45 -2 -3 -18 -1 -35 4 -16 5 -57 12 -91 16
l-62 7 0 76 c0 43 -3 114 -7 160 l-6 82 79 0 c43 0 108 -5 144 -11z m-1248
-46 c51 -53 57 -123 10 -123 -39 1 -62 39 -62 104 0 54 14 59 52 19z m766 -47
c62 -17 127 -53 165 -94 24 -25 28 -36 25 -77 l-3 -48 -70 -14 c-38 -8 -91
-24 -117 -37 l-47 -22 -3 24 c-2 14 -15 34 -30 45 -26 19 -33 20 -104 9 -184
-29 -305 -154 -349 -362 -11 -50 -26 -87 -49 -119 -44 -60 -79 -132 -102 -206
-31 -103 -37 -90 -30 65 9 223 33 324 109 475 74 146 251 296 417 352 76 26
115 28 188 9z m-132 -318 c-18 -90 -93 -195 -167 -234 -40 -20 -162 -65 -166
-60 -4 4 36 126 54 159 48 93 156 162 262 166 21 1 23 -2 17 -31z m-929 -107
c53 -25 127 -93 158 -145 23 -40 65 -174 65 -208 0 -17 -3 -17 -50 1 -155 59
-233 155 -247 305 -7 76 0 80 74 47z m789 -587 c-10 -96 -38 -162 -93 -216
-43 -42 -116 -84 -182 -103 -22 -7 -23 -5 -16 27 12 61 48 163 71 203 43 74
148 155 203 155 23 0 24 -1 17 -66z m-783 -72 c82 -38 125 -89 176 -212 23
-54 41 -101 41 -103 0 -8 -91 18 -141 40 -97 43 -170 144 -185 257 -7 45 -6
46 20 46 14 0 55 -13 89 -28z m2137 -584 c0 -239 -19 -469 -38 -468 -4 1 -25
26 -47 56 -22 30 -67 75 -100 100 l-60 46 -5 97 -5 96 -282 3 -283 2 0 130 0
130 410 0 410 0 0 -192z m270 -188 c0 -414 3 -392 -57 -369 -53 20 -120 28
-153 19 -31 -9 -32 -8 -26 16 25 99 36 240 36 467 l0 247 100 0 100 0 0 -380z
m-1758 -385 c94 -153 238 -286 389 -358 73 -35 90 -47 108 -82 12 -22 39 -64
61 -93 l40 -52 0 -97 0 -96 -87 6 c-88 6 -263 44 -326 71 -26 10 -42 30 -73
87 l-39 74 0 150 c0 145 -1 152 -28 208 -36 73 -110 147 -180 181 -92 45 -123
14 -134 -134 -11 -145 32 -228 172 -335 76 -57 137 -136 116 -149 -11 -7 -139
73 -216 134 -85 68 -184 175 -245 265 -55 81 -130 229 -130 255 0 12 69 51
222 127 l221 111 46 -106 c26 -59 63 -134 83 -167z m1314 149 c30 -31 68 -84
84 -118 l30 -61 -16 -50 c-21 -64 -35 -79 -114 -125 -66 -38 -185 -87 -178
-73 2 5 21 43 42 87 44 90 76 228 76 329 0 41 4 67 11 67 6 0 35 -25 65 -56z
m338 -200 c101 -26 106 -32 106 -122 0 -75 -1 -78 -40 -123 l-39 -46 -82 -7
c-45 -4 -127 -16 -183 -26 -132 -26 -132 -26 -107 9 11 15 25 40 30 54 12 31
98 78 215 116 43 14 84 33 89 43 26 40 -49 64 -103 33 -36 -20 -41 -18 -34 13
7 31 47 72 71 72 8 0 43 -7 77 -16z m-1767 -50 c40 -31 78 -79 98 -127 20 -49
32 -182 16 -191 -6 -4 -35 6 -64 22 -94 52 -147 163 -132 278 6 50 8 54 28 48
12 -3 36 -17 54 -30z m1193 -76 c-27 -80 -49 -128 -58 -128 -4 0 -17 -3 -29
-6 -29 -8 -30 14 -4 72 19 41 83 114 101 114 5 0 1 -24 -10 -52z m138 -212
c-27 -35 -49 -50 -115 -78 l-83 -35 7 26 c15 61 19 65 109 97 49 18 95 32 102
33 7 1 -2 -19 -20 -43z m-618 -51 c0 -8 -2 -15 -4 -15 -2 0 -6 7 -10 15 -3 8
-1 15 4 15 6 0 10 -7 10 -15z m348 -45 c-18 -56 -26 -65 -96 -117 -42 -31 -98
-77 -124 -101 l-48 -45 0 156 0 156 108 4 c59 1 124 4 144 5 l37 2 -21 -60z
m608 18 c-129 -108 -271 -191 -411 -241 -114 -40 -395 -93 -395 -74 0 3 41 37
90 76 100 76 244 155 360 194 103 35 280 73 355 76 l40 1 -39 -32z"/>
<path d="M7036 7095 c-28 -19 -48 -24 -87 -23 -64 1 -84 -17 -82 -73 2 -47 33
-116 66 -147 13 -12 41 -28 62 -35 l40 -14 3 -61 3 -62 -131 0 c-126 0 -131
-1 -139 -22 -4 -13 -8 -759 -8 -1658 -1 -1783 -4 -1680 55 -1680 16 0 33 5 40
12 9 9 12 101 12 351 l0 338 23 -6 c36 -11 90 -58 125 -109 l32 -48 0 -252 c0
-273 3 -291 51 -284 l24 3 5 403 5 404 23 18 c24 20 103 40 157 40 l35 0 0
-423 c0 -316 3 -426 12 -435 19 -19 66 -15 78 7 6 13 10 171 10 445 0 367 2
426 15 426 8 0 40 9 70 21 62 23 144 97 204 182 l33 48 -40 39 c-49 46 -132
79 -219 87 l-63 6 0 98 0 99 510 0 510 0 0 -140 0 -140 -69 0 c-83 0 -96 -11
-86 -72 11 -65 51 -142 106 -202 l49 -54 0 -419 c0 -313 3 -422 12 -431 15
-15 61 -15 76 0 9 9 12 114 12 411 l0 398 23 -6 c71 -22 134 -63 169 -110 l38
-50 2 -319 c3 -291 5 -320 21 -330 12 -8 22 -8 35 0 14 9 18 30 22 115 l5 104
48 71 c47 71 114 141 156 163 l21 12 0 -216 c0 -130 4 -224 10 -236 12 -22 62
-26 79 -6 7 9 12 103 13 278 l3 264 45 13 c137 41 193 79 224 154 21 50 21
171 1 188 -11 9 -50 11 -145 8 l-130 -5 0 130 0 129 49 54 c53 58 86 130 103
227 16 90 5 96 -119 71 l-33 -6 0 533 0 534 46 24 c89 48 156 146 190 284 24
96 18 101 -106 94 -53 -3 -103 -9 -113 -13 -16 -6 -17 8 -17 178 0 130 -4 188
-12 196 -17 17 -699 17 -716 0 -9 -9 -12 -97 -12 -335 0 -178 -2 -323 -5 -323
-2 0 -27 9 -55 20 -80 32 -100 13 -100 -93 0 -112 39 -218 113 -309 l47 -57 0
-94 c0 -77 -3 -96 -16 -101 -27 -10 -414 -7 -414 4 0 5 13 19 30 31 34 26 60
75 60 116 0 38 -45 128 -77 153 -33 26 -64 25 -98 -2 -81 -63 -86 -206 -10
-266 45 -36 32 -42 -84 -42 l-109 0 -7 53 c-9 69 -47 151 -79 172 -28 19 -140
26 -188 12 l-28 -7 0 520 c0 340 -4 528 -10 541 -10 18 -23 19 -165 19 l-155
0 0 64 c0 55 3 66 19 71 36 11 90 82 107 141 23 79 12 108 -40 112 -22 2 -55
14 -75 28 -44 30 -50 30 -95 -1z m117 -93 c15 -2 27 -9 27 -14 0 -28 -55 -98
-77 -98 -9 0 -13 18 -13 66 0 59 2 65 18 59 9 -4 29 -10 45 -13z m-133 -52 c0
-58 -1 -60 -20 -50 -22 12 -44 43 -54 77 -6 19 -2 22 26 26 18 2 36 5 41 5 4
1 7 -25 7 -58z m328 -757 l2 -383 -22 0 c-37 -1 -104 -36 -152 -81 l-46 -42 0
176 0 176 42 23 c60 33 100 101 102 172 2 75 -19 96 -91 96 l-53 0 0 118 c0
65 3 122 7 126 4 4 52 5 107 4 l101 -3 3 -382z m1452 -6 c0 -217 3 -443 6
-503 7 -123 1 -126 -40 -19 -39 98 -97 193 -150 245 l-46 44 0 313 0 313 115
0 115 0 0 -393z m310 228 l0 -166 -32 -17 c-51 -27 -133 -109 -159 -157 -13
-25 -27 -45 -31 -45 -5 0 -8 124 -8 275 l0 275 115 0 115 0 0 -165z m-2060 35
l0 -120 -49 0 c-55 0 -66 -9 -76 -61 -13 -71 28 -156 100 -207 30 -21 35 -31
35 -64 0 -21 -2 -38 -4 -38 -2 0 -27 16 -56 35 -29 19 -70 38 -91 41 l-39 7 0
263 0 264 90 0 90 0 0 -120z m150 -210 c0 -60 -55 -120 -109 -120 -36 0 -82
50 -88 98 l-6 42 102 0 c95 0 101 -1 101 -20z m2170 -19 c0 -5 -9 -29 -20 -53
l-20 -45 -107 -5 c-75 -4 -124 -11 -160 -26 -29 -11 -53 -16 -53 -11 0 11 94
81 140 104 71 36 220 61 220 36z m-104 -190 c-35 -38 -135 -74 -228 -80 -103
-7 -108 1 -26 42 74 36 150 56 217 56 52 1 54 0 37 -18z m-2308 -101 c23 -16
53 -47 67 -67 24 -37 25 -43 30 -276 3 -154 1 -237 -5 -237 -6 0 -10 4 -10 10
0 15 -101 77 -137 85 l-33 7 0 254 0 254 23 0 c13 0 43 -13 65 -30z m1505 -11
c55 -29 127 -92 159 -141 20 -29 58 -106 86 -170 l50 -117 -77 38 c-147 74
-227 159 -271 285 -11 33 -20 76 -20 97 0 37 1 38 26 29 14 -6 35 -15 47 -21z
m647 -333 c0 -315 6 -286 -67 -301 -36 -7 -107 -55 -140 -94 l-22 -26 0 330
c-1 182 3 335 7 342 11 18 71 31 150 32 l72 1 0 -284z m-1763 29 c1 -100 -1
-114 -25 -160 -28 -56 -41 -174 -25 -235 9 -34 8 -37 -58 -101 -37 -36 -75
-81 -85 -100 -19 -34 -19 -33 -22 244 -2 261 -1 279 18 317 30 58 80 111 125
131 67 31 70 28 72 -96z m683 -27 c38 -63 19 -127 -34 -114 -29 7 -38 38 -27
87 16 69 31 76 61 27z m-457 -79 c-10 -16 -55 -80 -100 -142 -46 -61 -83 -115
-83 -120 0 -4 -4 -5 -10 -2 -20 12 -11 127 14 180 37 80 84 113 159 114 l38 1
-18 -31z m91 -50 c11 -57 6 -95 -19 -145 -14 -27 -36 -57 -49 -66 -27 -19
-146 -51 -146 -39 0 4 32 50 71 102 39 52 82 113 96 137 14 23 28 42 33 42 4
0 10 -14 14 -31z m984 -6 c37 -20 86 -52 110 -70 l42 -34 -1 -247 c0 -182 -3
-240 -11 -222 -70 167 -125 244 -210 293 -79 47 -213 71 -259 47 -25 -14 -25
-63 1 -132 24 -66 66 -118 125 -155 25 -15 45 -30 45 -33 0 -3 -99 -3 -220 0
-121 3 -220 8 -220 13 0 4 0 86 0 182 l0 175 248 0 c180 0 251 3 260 12 8 8
12 47 12 110 0 54 3 98 6 98 3 0 36 -16 72 -37z m-1719 -103 c43 -21 83 -65
110 -119 17 -33 18 -59 13 -308 l-5 -272 -44 39 c-25 21 -65 47 -89 56 l-44
17 0 303 c0 204 3 304 10 304 6 0 28 -9 49 -20z m1039 -267 l2 -183 -310 0
c-241 0 -310 -3 -310 -12 -1 -7 0 -86 0 -175 l1 -162 -28 -15 c-50 -26 -123
-109 -158 -180 l-35 -69 0 268 0 267 30 63 c34 71 143 195 192 218 18 8 70 20
116 26 106 14 159 37 213 95 l44 47 120 -3 120 -3 3 -182z m1142 -82 l0 -209
-35 -22 c-64 -40 -132 -141 -176 -265 l-18 -50 0 284 -1 284 26 46 c49 85 120
140 182 141 l22 0 0 -209z m-656 135 c29 -12 35 -21 45 -66 12 -57 14 -80 5
-80 -29 0 -124 112 -124 147 0 17 32 17 74 -1z m223 -184 c14 -29 23 -55 21
-57 -2 -2 -25 9 -50 25 -40 25 -49 37 -63 82 -8 28 -15 61 -15 72 1 31 76 -55
107 -122z m-2 -142 c33 -16 74 -44 91 -62 l32 -33 5 -217 c2 -120 4 -218 2
-218 -1 0 -16 22 -33 49 -32 52 -88 99 -159 134 l-43 21 0 184 0 183 23 -6
c12 -4 49 -19 82 -35z m605 -57 c0 -35 -58 -139 -96 -172 -42 -38 -177 -104
-200 -99 -11 2 -8 16 16 66 53 111 105 162 206 202 62 24 74 24 74 3z m-2344
-105 c27 -18 63 -55 81 -83 l33 -50 0 -257 0 -258 -47 36 c-27 20 -67 45 -90
55 l-43 18 0 286 c0 159 4 285 9 285 5 0 31 -15 57 -32z m679 -162 c35 -16 37
-19 20 -25 -11 -5 -63 -11 -115 -15 -52 -3 -122 -13 -155 -21 -76 -18 -80 -18
-65 1 19 22 96 65 133 75 48 12 137 5 182 -15z m1491 -322 l-6 -276 -60 -44
c-52 -38 -109 -101 -147 -160 -9 -15 -12 44 -12 275 -1 279 0 297 20 338 11
23 35 53 52 65 33 24 136 77 151 78 4 0 5 -124 2 -276z m-581 237 l50 -16 27
-84 c15 -47 26 -87 23 -89 -10 -10 -129 55 -155 85 -30 34 -70 104 -70 122 0
12 58 4 125 -18z m-930 -41 c-52 -57 -148 -90 -265 -90 -41 0 -90 -4 -108 -9
-64 -19 -25 25 53 60 53 24 221 57 294 58 44 1 44 1 26 -19z m1164 -155 c27
-64 22 -79 -14 -45 -29 27 -61 91 -70 140 l-6 35 33 -37 c19 -20 44 -62 57
-93z m671 -67 c0 -64 -72 -146 -142 -163 l-27 -7 19 38 c11 22 31 65 45 97 23
56 25 57 64 57 35 0 41 -3 41 -22z m-175 -10 c-14 -46 -66 -148 -76 -148 -6 0
-9 26 -7 62 3 58 5 64 37 85 43 29 54 29 46 1z"/>
</g>
</svg>
