<svg xmlns="http://www.w3.org/2000/svg" xmlns:xlink="http://www.w3.org/1999/xlink" width="1000" zoomAndPan="magnify" viewBox="0 0 750 374.999991" height="500" preserveAspectRatio="xMidYMid meet" version="1.0"><path fill="#000000" d="M 101.703125 17.808594 C 96.691406 22.410156 94.472656 26.847656 94.472656 32.191406 C 94.472656 35.3125 94.964844 37.121094 96.199219 38.929688 C 97.839844 41.066406 97.921875 41.804688 97.265625 45.996094 C 96.855469 48.625 96.363281 50.84375 96.28125 50.84375 C 96.117188 50.925781 92.992188 51.417969 89.210938 51.996094 C 81.40625 53.0625 67.765625 57.417969 60.121094 61.28125 C 41.054688 70.894531 23.714844 89.222656 16.894531 106.972656 C 9.253906 126.695312 10.320312 151.183594 19.527344 169.507812 C 29.632812 189.558594 48.207031 204.84375 72.203125 212.898438 C 80.582031 215.691406 89.375 217.335938 112.960938 220.625 C 137.285156 223.992188 149.695312 228.511719 158.570312 237.386719 C 166.046875 244.949219 167.527344 248.5625 167.527344 259.65625 C 167.527344 267.792969 167.28125 269.191406 165.308594 273.464844 C 162.269531 279.957031 155.53125 286.367188 147.886719 290.0625 C 144.601562 291.625 140.65625 293.1875 139.175781 293.515625 C 136.792969 293.925781 136.546875 293.84375 136.957031 292.613281 C 137.285156 291.789062 137.78125 289.734375 138.027344 287.925781 C 138.4375 285.296875 139.09375 284.394531 141.722656 282.914062 C 146.242188 280.367188 148.050781 275.601562 146.65625 269.519531 C 143.859375 257.191406 136.054688 255.878906 130.628906 266.808594 C 127.917969 272.230469 127.917969 275.847656 130.628906 280.449219 C 132.765625 284.148438 132.847656 284.558594 131.289062 292.445312 L 130.792969 294.832031 L 118.714844 294.335938 C 100.71875 293.597656 88.308594 290.0625 78.035156 282.75 C 70.476562 277.328125 63.328125 268.039062 60.695312 259.988281 C 59.136719 255.46875 58.066406 254.808594 54.863281 256.453125 C 38.753906 264.835938 14.839844 278.148438 13.28125 279.710938 C 11.882812 281.023438 11.882812 281.1875 13.527344 284.3125 C 21.167969 298.773438 39.414062 316.277344 56.175781 325.234375 C 73.679688 334.605469 86.910156 338.054688 107.949219 338.714844 C 126.4375 339.289062 137.203125 337.5625 153.558594 331.644531 C 164.078125 327.867188 165.144531 327.617188 170.320312 328.03125 C 175.5 328.441406 175.992188 328.359375 177.308594 326.550781 C 178.046875 325.484375 178.621094 323.097656 178.621094 321.292969 C 178.621094 318.085938 178.949219 317.59375 183.964844 313.566406 C 201.21875 299.515625 212.148438 278.886719 213.792969 257.191406 C 214.945312 241.90625 212.480469 228.511719 206.234375 216.84375 L 203.523438 211.75 L 208.945312 210.433594 C 219.136719 207.96875 223.738281 202.625 219.136719 198.765625 L 217.082031 197.039062 L 219.300781 194.65625 C 223.984375 189.644531 225.957031 182.65625 223.820312 178.628906 C 222.585938 176.410156 216.917969 176.496094 213.136719 178.796875 C 211.574219 179.78125 210.179688 180.191406 210.097656 179.78125 C 208.699219 175.753906 204.179688 174.851562 200.070312 177.808594 C 196.78125 180.191406 192.839844 186.601562 191.6875 191.53125 L 190.703125 195.640625 L 185.277344 192.027344 C 167.527344 180.109375 147.96875 174.027344 120.769531 171.972656 C 113.949219 171.480469 108.195312 170.90625 108.03125 170.742188 C 107.867188 170.660156 109.015625 168.523438 110.660156 166.058594 C 113.125 162.359375 114.113281 161.539062 116.742188 161.128906 C 118.46875 160.796875 120.769531 159.976562 121.753906 159.238281 C 124.714844 157.429688 126.851562 151.921875 126.851562 146.253906 C 126.851562 137.132812 123.480469 134.335938 116.578125 137.625 C 109.59375 140.992188 105.8125 148.554688 107.949219 154.882812 C 108.933594 157.839844 108.851562 158.25 107.046875 160.386719 C 105.976562 161.703125 104.332031 164.332031 103.511719 166.222656 C 102.195312 169.179688 100.554688 170.824219 100.554688 169.179688 C 100.554688 168.933594 100.140625 166.222656 99.648438 163.097656 C 98.828125 157.675781 98.910156 157.265625 100.800781 154.71875 C 105.15625 148.882812 104.25 142.71875 98.167969 136.636719 C 92.171875 130.640625 88.390625 130.476562 85.597656 136.0625 C 83.871094 139.269531 83.625 148.226562 85.019531 151.019531 C 86.335938 153.566406 90.035156 157.347656 91.183594 157.347656 C 92.5 157.347656 93.074219 158.992188 93.730469 164.496094 L 94.226562 169.097656 L 91.019531 168.523438 C 85.101562 167.453125 77.625 163.347656 72.695312 158.414062 C 66.859375 152.5 64.394531 146.746094 63.820312 137.132812 C 62.996094 124.886719 67.765625 114.695312 77.542969 107.875 C 87.40625 101.054688 101.785156 97.519531 115.507812 98.507812 C 125.125 99.164062 129.234375 100.234375 137.121094 104.011719 C 148.625 109.519531 156.433594 117.410156 161.941406 129.160156 C 163.417969 132.445312 165.0625 135.160156 165.554688 135.160156 C 166.046875 135.160156 171.882812 132.035156 178.457031 128.339844 C 185.113281 124.558594 194.730469 119.132812 199.742188 116.339844 C 204.835938 113.464844 209.273438 110.835938 209.519531 110.421875 C 210.425781 108.863281 209.027344 105.65625 203.933594 98.015625 C 194.070312 83.304688 179.773438 71.390625 163.171875 64.074219 C 155.613281 60.707031 155.199219 60.460938 155.449219 58.160156 C 155.613281 56.925781 155.859375 52.652344 156.105469 48.625 C 156.761719 38.683594 156.761719 38.683594 145.503906 39.175781 L 136.546875 39.585938 L 134.164062 37.121094 C 131.289062 34.246094 128.65625 34.574219 124.960938 38.023438 C 122.414062 40.40625 118.632812 47.148438 118.632812 49.28125 C 118.632812 50.269531 117.316406 50.515625 110.742188 50.515625 L 102.773438 50.515625 L 103.347656 46.570312 C 103.59375 44.433594 104.167969 42.625 104.496094 42.460938 C 107.210938 41.558594 110.660156 38.519531 112.058594 35.804688 C 115.671875 28.574219 112.386719 14.359375 106.960938 14.359375 C 106.140625 14.359375 103.757812 15.917969 101.703125 17.808594 Z M 107.128906 28.410156 C 107.128906 33.75 105.8125 35.96875 102.9375 35.558594 C 99.320312 35.066406 100.222656 28.082031 104.496094 23.152344 C 106.304688 21.097656 107.128906 22.738281 107.128906 28.410156 Z M 130.21875 48.707031 C 128.574219 52.078125 124.21875 57.910156 123.234375 57.910156 C 123.070312 57.910156 123.5625 55.28125 124.382812 52.160156 C 125.863281 46.40625 126.851562 44.515625 129.234375 42.460938 C 130.300781 41.558594 130.628906 41.722656 131.289062 43.121094 C 131.863281 44.351562 131.535156 45.832031 130.21875 48.707031 Z M 150.433594 49.449219 C 149.367188 60.046875 143.449219 65.554688 132.929688 65.636719 C 125.453125 65.71875 125.042969 64.816406 130.464844 59.226562 C 133.257812 56.351562 135.394531 53.390625 135.972656 51.335938 C 136.546875 49.53125 137.53125 47.558594 138.109375 47.0625 C 139.339844 46.078125 144.1875 45.09375 148.542969 44.84375 L 150.929688 44.761719 Z M 95.621094 62.347656 C 95.621094 68.019531 92.417969 81.085938 90.363281 84.125 C 84.199219 92.917969 81.816406 95.386719 76.558594 98.425781 C 73.515625 100.152344 68.996094 103.765625 66.367188 106.644531 C 59.464844 114.039062 56.421875 121.269531 54.945312 133.597656 C 54.535156 136.882812 54.039062 137.707031 50.835938 140.007812 C 48.863281 141.40625 46.398438 143.953125 45.328125 145.675781 L 43.4375 148.71875 L 43.191406 135.570312 C 43.109375 128.339844 43.191406 121.597656 43.4375 120.53125 C 43.6875 119.546875 48.453125 113.875 53.957031 107.957031 C 68.832031 92.097656 72.121094 86.507812 74.257812 73.527344 C 74.75 70.15625 75.488281 66.621094 75.898438 65.636719 C 76.722656 63.5 82.882812 61.527344 95.046875 59.636719 C 95.375 59.636719 95.621094 60.789062 95.621094 62.347656 Z M 116.988281 60.460938 C 116.988281 62.347656 115.179688 64.402344 110.660156 67.773438 C 108.03125 69.746094 104.660156 72.457031 103.265625 73.773438 C 100.304688 76.566406 99.320312 76.402344 100.386719 73.445312 C 100.800781 72.375 101.457031 68.757812 101.785156 65.472656 L 102.359375 59.554688 L 109.675781 59.554688 C 114.277344 59.554688 116.988281 59.882812 116.988281 60.460938 Z M 68.996094 70.402344 C 68.09375 76.484375 65.214844 83.960938 62.011719 88.894531 C 58.972656 93.578125 45.082031 108.863281 43.933594 108.863281 C 42.863281 108.863281 41.304688 85.6875 42.289062 84.539062 C 46.152344 79.851562 65.464844 67.117188 68.832031 66.953125 C 69.242188 66.953125 69.324219 68.511719 68.996094 70.402344 Z M 154.625 69.910156 C 158.078125 71.058594 161.859375 72.703125 163.007812 73.609375 L 165.0625 75.167969 L 163.007812 76.8125 C 161.859375 77.714844 157.421875 80.839844 153.066406 83.796875 L 145.175781 89.222656 L 123.890625 89.550781 C 112.222656 89.714844 100.636719 90.289062 98.167969 90.699219 C 95.785156 91.195312 93.566406 91.605469 93.320312 91.605469 C 91.511719 91.605469 108.277344 77.222656 115.179688 72.785156 C 118.796875 70.484375 119.945312 70.15625 122.578125 70.566406 C 124.21875 70.894531 128.574219 71.308594 132.191406 71.554688 C 138.027344 71.882812 139.257812 71.71875 142.875 69.910156 C 145.175781 68.839844 147.3125 67.855469 147.640625 67.855469 C 147.96875 67.773438 151.09375 68.675781 154.625 69.910156 Z M 176.648438 82.070312 C 182.074219 86.097656 191.769531 95.714844 190.457031 95.714844 C 189.960938 95.714844 185.9375 95.21875 181.414062 94.5625 C 176.976562 93.90625 171.472656 93.167969 169.171875 92.917969 C 156.761719 91.605469 154.707031 91.359375 154.953125 90.699219 C 155.285156 89.878906 170.484375 78.457031 171.308594 78.457031 C 171.636719 78.457031 174.019531 80.101562 176.648438 82.070312 Z M 37.03125 113.792969 L 37.359375 131.460938 L 35.222656 127.351562 C 33.988281 125.050781 31.03125 120.53125 28.484375 117.328125 L 23.964844 111.410156 L 26.019531 106.890625 C 27.167969 104.425781 29.632812 100.070312 31.605469 97.273438 C 34.976562 92.261719 35.140625 92.179688 35.878906 94.152344 C 36.371094 95.21875 36.863281 104.09375 37.03125 113.792969 Z M 149.039062 96.617188 C 155.859375 97.851562 157.667969 98.835938 163.253906 103.929688 C 167.28125 107.628906 174.511719 117.492188 174.511719 119.378906 C 174.511719 119.792969 173.28125 120.695312 171.71875 121.351562 L 168.925781 122.667969 L 165.0625 117.078125 C 160.296875 110.09375 152.570312 102.699219 145.175781 98.179688 C 142.050781 96.207031 140.492188 94.890625 141.640625 95.136719 C 142.792969 95.386719 146.078125 96.042969 149.039062 96.617188 Z M 182.320312 101.136719 C 191.851562 102.699219 199.332031 104.753906 198.917969 105.820312 C 198.835938 106.230469 194.644531 108.945312 189.714844 111.738281 L 180.757812 116.914062 L 176.730469 111 C 174.511719 107.792969 171.636719 104.011719 170.320312 102.699219 C 166.378906 98.507812 166.128906 98.507812 182.320312 101.136719 Z M 28.320312 127.761719 C 33.496094 137.132812 36.453125 145.84375 37.277344 154.058594 C 37.6875 158.332031 38.097656 162.359375 38.097656 163.015625 C 38.097656 163.675781 36.125 161.949219 33.660156 159.320312 C 31.195312 156.605469 27.496094 153.484375 25.441406 152.335938 C 22.074219 150.527344 21.582031 149.949219 20.757812 146.171875 C 19.773438 141.652344 20.101562 122.832031 21.332031 120.039062 C 21.910156 118.558594 22.074219 118.640625 23.882812 120.859375 C 24.949219 122.175781 26.921875 125.296875 28.320312 127.761719 Z M 94.71875 142.308594 C 97.429688 145.59375 97.839844 147.402344 96.445312 150.03125 C 95.292969 152.167969 92.746094 152.003906 91.183594 149.785156 C 89.292969 147.074219 89.542969 139.269531 91.511719 139.269531 C 91.925781 139.269531 93.320312 140.664062 94.71875 142.308594 Z M 120.933594 147.15625 C 120.441406 152.582031 117.976562 155.867188 115.507812 154.386719 C 114.769531 153.894531 114.03125 152.335938 113.867188 150.855469 C 113.621094 148.800781 114.195312 147.648438 116.414062 145.429688 C 120.523438 141.320312 121.34375 141.652344 120.933594 147.15625 Z M 56.175781 146.171875 C 56.175781 146.746094 57.65625 150.199219 59.382812 153.8125 C 65.214844 165.316406 74.585938 172.796875 88.226562 176.742188 L 94.390625 178.546875 L 94.636719 193.832031 C 94.800781 207.96875 94.71875 209.117188 93.402344 209.117188 C 89.625 209.117188 71.789062 203.859375 65.792969 200.984375 C 55.273438 196.050781 52.316406 193.503906 49.191406 186.683594 C 45.988281 179.453125 44.753906 174.769531 44.097656 166.46875 C 43.6875 160.632812 43.769531 159.894531 46.152344 155.210938 C 49.4375 148.71875 56.175781 142.636719 56.175781 146.171875 Z M 32.097656 166.960938 C 36.125 172.304688 41.386719 182.082031 41.386719 184.300781 C 41.386719 185.535156 34.398438 177.890625 30.785156 172.632812 C 28.484375 169.34375 24.128906 160.632812 24.128906 159.320312 C 24.128906 158.003906 28.484375 162.195312 32.097656 166.960938 Z M 113.703125 179.535156 C 113.703125 179.945312 113.371094 180.355469 112.960938 180.355469 C 111.730469 180.355469 103.675781 187.917969 102.03125 190.628906 L 100.554688 193.09375 L 100.554688 178.714844 L 107.128906 178.714844 C 110.988281 178.714844 113.703125 179.042969 113.703125 179.535156 Z M 141.886719 183.644531 C 142.21875 183.644531 142.464844 188.246094 142.464844 193.914062 C 142.464844 206.078125 142.136719 206.324219 136.054688 199.667969 C 131.699219 194.902344 129.316406 189.558594 129.316406 184.382812 L 129.316406 181.34375 L 135.3125 182.492188 C 138.519531 183.152344 141.476562 183.644531 141.886719 183.644531 Z M 126.4375 196.792969 C 129.152344 202.132812 133.34375 206.816406 138.4375 210.105469 C 141.722656 212.160156 142.464844 213.144531 142.464844 215.035156 C 142.464844 217.746094 142.710938 217.746094 134.65625 215.691406 C 131.125 214.789062 122.988281 213.308594 116.660156 212.40625 C 99.320312 209.941406 100.636719 210.351562 101.128906 206.816406 C 101.867188 201.230469 105.320312 195.558594 111.070312 190.054688 C 114.113281 187.175781 117.890625 184.21875 119.453125 183.480469 L 122.328125 182.082031 L 123.316406 187.339844 C 123.890625 190.21875 125.289062 194.492188 126.4375 196.792969 Z M 205.164062 184.628906 C 204.425781 188.65625 202.617188 192.191406 199.578125 195.722656 L 196.78125 198.847656 L 196.699219 196.132812 C 196.699219 192.929688 198.507812 188.410156 201.304688 184.710938 C 204.015625 181.097656 205.90625 181.097656 205.164062 184.628906 Z M 218.808594 184.710938 C 216.339844 189.558594 211.246094 194.328125 208.617188 194.328125 C 207.878906 194.328125 210.589844 188.328125 212.148438 186.601562 C 214.039062 184.464844 218.230469 182 219.054688 182.492188 C 219.382812 182.738281 219.300781 183.726562 218.808594 184.710938 Z M 156.023438 187.257812 C 159.472656 188.738281 159.472656 189.476562 155.367188 196.792969 C 151.996094 202.875 149.941406 205.832031 148.957031 205.832031 C 148.542969 205.832031 148.214844 201.3125 148.214844 195.476562 L 148.214844 185.039062 L 150.597656 185.535156 C 151.996094 185.863281 154.378906 186.601562 156.023438 187.257812 Z M 173.527344 196.21875 C 174.019531 198.683594 158.570312 209.035156 156.84375 207.3125 C 156.597656 207.0625 157.585938 204.925781 159.0625 202.460938 C 160.542969 199.996094 162.433594 196.464844 163.335938 194.574219 L 164.816406 191.121094 L 169.089844 193.011719 C 171.390625 194 173.363281 195.476562 173.527344 196.21875 Z M 214.285156 201.3125 C 214.039062 203.613281 200.808594 206.570312 200.808594 204.269531 C 200.808594 202.214844 206.070312 199.996094 210.261719 200.242188 C 212.5625 200.40625 214.285156 200.820312 214.285156 201.3125 Z M 186.757812 203.941406 C 188.648438 205.585938 190.125 207.230469 190.125 207.558594 C 190.125 208.625 185.6875 215.609375 185.03125 215.691406 C 184.621094 215.691406 184.375 214.050781 184.375 212.160156 C 184.375 210.1875 183.882812 206.816406 183.222656 204.761719 C 182.566406 202.625 182.402344 200.902344 182.730469 200.902344 C 183.140625 200.902344 184.949219 202.214844 186.757812 203.941406 Z M 177.964844 208.460938 C 179.691406 215.445312 179.277344 236.976562 177.226562 243.632812 C 175.910156 247.824219 175.417969 248.644531 174.921875 247.332031 C 174.59375 246.425781 173.28125 243.386719 171.964844 240.59375 C 169.089844 234.59375 160.542969 226.210938 153.558594 222.597656 C 149.449219 220.460938 149.039062 219.964844 149.203125 217.828125 C 149.449219 215.527344 149.695312 215.363281 156.105469 213.96875 C 163.335938 212.40625 167.363281 210.679688 172.457031 206.734375 C 174.265625 205.339844 175.992188 204.1875 176.320312 204.1875 C 176.566406 204.1875 177.308594 206.160156 177.964844 208.460938 Z M 196.867188 216.84375 C 199.167969 220.625 199.085938 221.445312 196.535156 221.445312 C 195.714844 221.445312 193.167969 222.347656 190.949219 223.5 C 188.730469 224.648438 186.757812 225.554688 186.511719 225.554688 C 186.347656 225.554688 187.824219 222.761719 189.878906 219.390625 C 191.933594 216.023438 193.90625 213.226562 194.152344 213.226562 C 194.398438 213.226562 195.632812 214.871094 196.867188 216.84375 Z M 202.535156 230.074219 C 203.441406 232.128906 204.261719 235.910156 204.34375 238.375 L 204.507812 242.976562 L 200.316406 244.125 C 193.332031 245.933594 186.59375 248.480469 184.210938 250.207031 C 182.976562 251.113281 181.828125 251.851562 181.664062 251.851562 C 181.414062 251.851562 182.320312 247.90625 183.46875 243.140625 C 185.6875 234.511719 185.769531 234.347656 189.632812 231.472656 C 193.003906 229.003906 198.179688 226.539062 200.234375 226.375 C 200.5625 226.375 201.632812 228.019531 202.535156 230.074219 Z M 200.808594 252.015625 C 200.808594 254.398438 195.714844 263.519531 192.511719 267.054688 C 188.566406 271.328125 181.332031 275.355469 176.15625 276.175781 C 172.953125 276.667969 172.789062 276.667969 173.609375 275.191406 C 174.101562 274.367188 175.253906 271.492188 176.238281 268.863281 C 179.03125 261.136719 183.46875 257.027344 193.332031 253 C 198.507812 250.863281 200.808594 250.535156 200.808594 252.015625 Z M 204.097656 266.808594 C 202.125 275.023438 197.605469 285.050781 193.085938 291.214844 C 191.523438 293.269531 186.921875 298.28125 182.894531 302.308594 L 175.5 309.539062 L 173.035156 305.84375 C 170.320312 302.0625 164.734375 297.789062 160.050781 296.0625 L 157.335938 295.078125 L 162.433594 290.226562 C 167.199219 285.707031 168.019531 285.296875 175.007812 283.488281 C 179.113281 282.421875 184.457031 280.613281 186.839844 279.378906 C 192.921875 276.257812 199.90625 269.4375 202.863281 263.519531 C 204.261719 260.808594 205.492188 258.753906 205.660156 258.917969 C 205.824219 259.082031 205.164062 262.617188 204.097656 266.808594 Z M 140.820312 272.394531 C 140.820312 276.339844 139.75 278.148438 137.449219 278.148438 C 134.574219 278.148438 134.246094 272.558594 136.792969 268.285156 C 138.4375 265.65625 138.601562 265.574219 139.667969 267.054688 C 140.328125 267.875 140.820312 270.339844 140.820312 272.394531 Z M 50.425781 273.710938 C 50.425781 275.191406 51.328125 279.546875 52.480469 283.488281 C 53.628906 287.433594 54.453125 290.886719 54.203125 291.050781 C 53.546875 291.707031 48.371094 289.652344 45.65625 287.679688 C 42.371094 285.296875 40.070312 282.339844 38.507812 278.640625 L 37.277344 275.765625 L 43.191406 272.476562 C 49.601562 268.945312 50.425781 269.109375 50.425781 273.710938 Z M 59.875 276.667969 C 62.914062 281.269531 63.574219 284.96875 61.683594 287.515625 C 60.613281 288.914062 60.449219 288.832031 59.300781 285.871094 C 58.558594 284.066406 57.738281 281.023438 57.410156 278.96875 C 57.164062 276.914062 56.671875 274.613281 56.503906 273.792969 C 55.765625 271.328125 56.835938 272.230469 59.875 276.667969 Z M 33.742188 282.421875 C 37.605469 290.308594 44.753906 295.816406 54.285156 298.199219 C 58.066406 299.1875 58.394531 299.433594 61.683594 305.59375 C 65.378906 312.5 67.929688 316.113281 72.941406 321.457031 C 74.667969 323.429688 75.734375 324.988281 75.324219 324.988281 C 73.679688 324.988281 56.671875 315.867188 50.753906 311.757812 C 43.523438 306.664062 32.921875 296.554688 27.824219 289.570312 C 25.769531 286.777344 24.128906 284.230469 24.128906 283.902344 C 24.128906 283.160156 29.960938 279.050781 31.195312 279.050781 C 31.605469 278.96875 32.757812 280.53125 33.742188 282.421875 Z M 73.351562 290.0625 C 75.570312 291.625 80.171875 294.253906 83.625 295.816406 C 90.28125 298.9375 91.265625 299.761719 87.570312 299.019531 C 84.527344 298.363281 83.542969 299.761719 82.144531 306.335938 C 80.914062 312.167969 81.40625 317.265625 83.789062 321.867188 C 84.9375 324.332031 84.609375 324.085938 80.417969 320.058594 C 75.078125 314.882812 69.652344 307.648438 66.53125 301.40625 C 64.148438 296.554688 63.902344 294.417969 65.546875 293.023438 C 66.203125 292.527344 67.105469 290.96875 67.683594 289.652344 C 68.257812 288.257812 68.832031 287.1875 68.996094 287.1875 C 69.160156 287.1875 71.132812 288.503906 73.351562 290.0625 Z M 157.253906 302.0625 C 165.0625 304.035156 171.882812 312.417969 172.046875 320.222656 C 172.046875 322.277344 171.882812 322.359375 169.664062 321.703125 C 164.570312 320.304688 159.640625 317.59375 156.105469 314.304688 C 152.242188 310.773438 149.039062 305.183594 149.039062 302.144531 C 149.039062 300.253906 150.105469 300.253906 157.253906 302.0625 Z M 116.414062 302.554688 C 123.480469 302.800781 129.316406 303.292969 129.316406 303.625 C 129.316406 303.953125 128.492188 304.855469 127.589844 305.761719 C 124.714844 308.226562 115.425781 319.976562 113.042969 324.003906 L 110.90625 327.703125 L 109.59375 321.621094 C 107.867188 313.8125 105.976562 309.949219 101.621094 305.347656 C 99.648438 303.375 98.085938 301.488281 98.085938 301.320312 C 98.085938 301.15625 99.320312 301.238281 100.800781 301.488281 C 102.195312 301.816406 109.265625 302.226562 116.414062 302.554688 Z M 143.285156 304.609375 C 143.285156 307.15625 147.640625 314.554688 151.257812 318.332031 L 155.285156 322.523438 L 148.710938 324.578125 C 145.011719 325.648438 139.667969 327.125 136.710938 327.785156 C 129.726562 329.34375 116.988281 330.414062 116.988281 329.34375 C 116.988281 328.933594 120.195312 324.578125 124.21875 319.648438 C 129.152344 313.484375 133.011719 309.539062 136.546875 307.15625 C 142.050781 303.457031 143.285156 302.964844 143.285156 304.609375 Z M 95.128906 308.390625 C 96.855469 309.621094 99.320312 312.417969 100.636719 314.71875 C 102.9375 318.910156 105.402344 328.605469 104.414062 329.589844 C 103.101562 330.988281 96.691406 327.949219 93.15625 324.25 C 89.292969 320.304688 87.40625 315.867188 87.40625 310.773438 C 87.40625 304.609375 88.964844 304.199219 95.128906 308.390625 Z M 95.128906 308.390625 " fill-opacity="1" fill-rule="nonzero"/><path fill="#000000" d="M 403.214844 27.835938 C 396.476562 29.972656 391.460938 35.394531 391.460938 40.488281 C 391.460938 42.460938 390.558594 43.859375 387.351562 46.898438 C 384.722656 49.367188 382.09375 52.980469 380.203125 56.84375 L 377.164062 62.925781 L 373.464844 62.679688 L 369.683594 62.429688 L 369.4375 57.664062 C 369.273438 54.871094 369.519531 52.980469 370.015625 52.980469 C 371.410156 52.980469 373.382812 48.296875 373.382812 45.011719 C 373.300781 37.285156 364.589844 27.09375 359.414062 28.738281 C 356.867188 29.558594 354.976562 34.820312 354.648438 42.214844 L 354.316406 49.035156 L 358.917969 53.390625 C 362.863281 57.089844 363.523438 58.242188 363.523438 60.707031 C 363.523438 63.417969 363.273438 63.664062 361.304688 63.664062 C 359.988281 63.664062 356.289062 64.320312 352.921875 65.0625 C 347.003906 66.457031 346.839844 66.457031 345.9375 64.898438 C 344.128906 61.773438 338.375 55.941406 334.839844 53.636719 C 329.417969 50.269531 327.28125 50.597656 321.941406 55.609375 C 316.1875 61.035156 312.816406 67.855469 311.503906 76.894531 L 310.515625 83.632812 L 304.1875 90.042969 L 297.78125 96.535156 L 296.136719 93.25 C 294.65625 90.289062 294.574219 89.550781 295.394531 86.675781 C 297.285156 80.511719 292.683594 72.292969 285.371094 68.511719 C 278.632812 65.144531 276.003906 67.691406 276.085938 77.550781 C 276.085938 86.839844 279.453125 91.851562 286.519531 93 C 289.480469 93.414062 289.890625 93.824219 292.027344 98.34375 L 294.328125 103.191406 L 291.535156 108.699219 C 288.65625 114.285156 285.453125 125.378906 285.453125 129.570312 C 285.453125 130.804688 285.207031 131.871094 284.878906 131.789062 C 284.464844 131.789062 282.988281 129.242188 281.507812 126.039062 C 276.414062 115.355469 266.714844 108.121094 256.527344 107.382812 C 251.183594 106.972656 250.691406 107.464844 249.789062 114.203125 C 248.636719 123.902344 252.910156 135.652344 259.976562 141.980469 C 262.113281 143.953125 267.785156 147.484375 272.46875 149.785156 C 277.152344 152.085938 281.507812 154.46875 282.164062 155.046875 C 283.152344 155.785156 283.972656 160.46875 285.289062 172.140625 C 286.355469 180.933594 287.34375 189.972656 287.589844 192.273438 C 287.917969 194.492188 287.917969 196.21875 287.671875 195.96875 C 287.425781 195.722656 285.699219 191.695312 283.808594 186.929688 C 278.386719 173.207031 274.113281 167.617188 265.894531 163.511719 C 260.800781 160.960938 251.511719 159.8125 248.472656 161.457031 C 246.746094 162.359375 246.664062 162.769531 247.074219 168.769531 C 248.144531 184.546875 257.101562 195.476562 272.714844 200.40625 C 276.332031 201.558594 280.359375 202.707031 281.589844 202.957031 C 282.824219 203.203125 285.125 204.597656 286.683594 206.078125 C 289.070312 208.296875 289.890625 210.105469 291.945312 217.828125 C 293.34375 222.84375 295.148438 228.839844 296.136719 231.222656 C 297.039062 233.527344 297.78125 235.664062 297.78125 235.828125 C 297.78125 236.074219 288.90625 240.675781 278.058594 246.097656 C 260.472656 254.890625 258.335938 256.207031 258.335938 257.933594 C 258.335938 260.234375 263.019531 271.574219 266.714844 278.148438 C 270.988281 285.789062 280.441406 297.953125 287.425781 304.855469 C 301.96875 319.320312 324.324219 330.824219 347.332031 335.835938 C 359.742188 338.546875 383.410156 338.546875 395.40625 335.835938 C 413.15625 331.890625 430.332031 324.414062 442 315.703125 C 445.125 313.320312 452.4375 306.828125 458.191406 301.238281 L 468.710938 291.050781 L 468.542969 242.070312 L 468.296875 193.09375 L 363.109375 193.09375 L 362.863281 211.914062 C 362.699219 226.457031 362.945312 230.894531 363.6875 231.472656 C 364.261719 231.800781 374.617188 232.128906 386.777344 232.128906 L 408.71875 232.128906 L 408.71875 265.65625 L 404.363281 268.121094 C 397.050781 272.230469 389.820312 281.847656 389.820312 287.433594 C 389.820312 291.378906 389.160156 291.542969 377 291.050781 C 370.671875 290.804688 363.355469 289.980469 360.644531 289.324219 C 339.363281 283.652344 322.433594 265.574219 313.804688 239.195312 C 312.078125 233.9375 310.597656 230.8125 309.859375 230.648438 C 309.121094 230.484375 307.394531 230.976562 305.996094 231.71875 C 304.023438 232.703125 303.449219 232.785156 303.121094 231.964844 C 301.066406 226.210938 296.957031 209.941406 296.957031 207.558594 C 296.957031 205.421875 297.699219 203.367188 299.339844 201.148438 C 301.394531 198.269531 302.792969 197.449219 309.039062 195.230469 C 318.078125 191.945312 320.625 190.382812 325.226562 185.203125 C 330.898438 178.960938 332.621094 173.699219 332.621094 162.441406 C 332.703125 154.058594 332.539062 152.992188 331.0625 151.921875 C 329.171875 150.445312 326.046875 150.855469 319.226562 153.402344 C 313.230469 155.621094 305.585938 163.261719 302.382812 170.003906 C 301.066406 172.632812 299.175781 178.546875 298.027344 183.152344 C 294.984375 195.558594 294.246094 195.066406 294.738281 181.179688 C 295.148438 167.867188 297.121094 159.484375 302.300781 148.71875 C 306.078125 140.828125 308.460938 138.855469 317.832031 135.570312 C 322.1875 134.007812 327.363281 131.871094 329.335938 130.722656 C 333.527344 128.257812 338.621094 122.914062 341.664062 117.738281 C 343.46875 114.695312 344.785156 113.628906 349.386719 111.492188 C 352.425781 110.09375 356.371094 108.617188 358.179688 108.121094 C 363.027344 106.808594 377.984375 106.972656 383.492188 108.449219 C 393.84375 111.164062 403.625 117.820312 410.527344 126.859375 C 414.472656 132.117188 421.046875 144.609375 421.046875 146.910156 C 421.046875 147.566406 421.785156 148.71875 422.691406 149.539062 C 424.25 150.9375 424.910156 150.773438 445.042969 141.40625 C 456.464844 136.144531 466.492188 131.050781 467.230469 130.144531 C 468.628906 128.503906 468.542969 128.171875 465.09375 121.269531 C 460.082031 111.410156 452.191406 99.824219 445.78125 93.082031 C 431.894531 78.292969 412.089844 68.019531 390.476562 64.402344 C 386.941406 63.828125 384.066406 62.925781 384.066406 62.429688 C 384.066406 61.117188 388.339844 54.625 391.214844 51.585938 C 393.351562 49.28125 394.007812 49.035156 396.96875 49.449219 C 401.734375 50.105469 405.761719 48.460938 409.046875 44.597656 C 413.566406 39.339844 415.949219 30.136719 413.484375 27.671875 C 412.253906 26.4375 407.652344 26.519531 403.214844 27.835938 Z M 407.898438 34.164062 C 407.898438 36.132812 404.117188 41.722656 402.0625 42.792969 C 400.253906 43.695312 399.679688 43.695312 398.363281 42.707031 C 396.96875 41.640625 396.886719 41.394531 398.035156 39.339844 C 398.695312 38.105469 400.914062 36.21875 402.886719 35.148438 C 406.910156 33.011719 407.898438 32.847656 407.898438 34.164062 Z M 364.671875 38.1875 C 366.808594 40.738281 368.207031 45.585938 367.21875 47.148438 C 366.972656 47.640625 365.988281 48.460938 365.164062 48.871094 C 361.550781 50.761719 359 44.1875 360.726562 37.53125 C 361.386719 35.148438 362.125 35.230469 364.671875 38.1875 Z M 333.28125 60.460938 C 336.8125 62.761719 341.332031 67.855469 341.332031 69.5 C 341.332031 69.828125 338.867188 70.8125 335.828125 71.800781 C 332.703125 72.703125 327.363281 74.921875 323.910156 76.730469 L 317.503906 79.933594 L 317.503906 77.632812 C 317.503906 73.609375 320.953125 66.128906 324.734375 61.9375 C 326.707031 59.71875 328.515625 57.910156 328.84375 57.910156 C 329.089844 57.910156 331.0625 59.0625 333.28125 60.460938 Z M 365.164062 76.074219 C 365.164062 78.375 364.835938 80.101562 364.507812 79.933594 C 360.316406 78.375 352.839844 74.59375 352.839844 74.183594 C 352.839844 73.855469 354.5625 73.359375 356.78125 73.113281 C 358.917969 72.867188 361.222656 72.457031 361.878906 72.375 C 365 71.636719 365.164062 71.882812 365.164062 76.074219 Z M 388.996094 72.785156 C 396.476562 73.9375 410.527344 78.785156 417.511719 82.566406 C 432.960938 90.863281 447.015625 105.246094 455.3125 121.1875 C 457.121094 124.722656 457.285156 125.542969 456.300781 126.203125 C 454.65625 127.1875 428.6875 139.269531 428.113281 139.269531 C 427.867188 139.269531 426.46875 136.964844 425.074219 134.089844 C 419.8125 123.652344 412.910156 115.683594 401.488281 106.5625 C 399.597656 105.082031 395.816406 100.890625 393.023438 97.273438 C 387.351562 89.714844 384.558594 87.90625 382.75 90.371094 C 381.109375 92.507812 381.273438 92.835938 384.558594 96.535156 C 386.203125 98.34375 387.433594 100.070312 387.1875 100.234375 C 387.023438 100.480469 385.710938 100.316406 384.3125 99.90625 C 382.996094 99.492188 379.628906 98.917969 376.835938 98.589844 L 371.738281 98.015625 L 371.738281 91.769531 C 371.738281 88.234375 371.492188 82.402344 371.164062 78.621094 L 370.671875 71.882812 L 377.164062 71.882812 C 380.695312 71.882812 386.039062 72.292969 388.996094 72.785156 Z M 286.4375 76.566406 C 290.628906 80.921875 291.125 86.675781 287.261719 86.675781 C 284.054688 86.59375 282.164062 83.46875 282.164062 78.128906 C 282.164062 73.691406 283.316406 73.277344 286.4375 76.566406 Z M 349.386719 80.429688 C 354.480469 81.824219 359.824219 84.785156 362.945312 88.152344 C 364.917969 90.207031 365.246094 91.113281 365 94.480469 L 364.753906 98.425781 L 359 99.574219 C 355.878906 100.234375 351.523438 101.546875 349.386719 102.617188 L 345.523438 104.425781 L 345.277344 102.453125 C 345.113281 101.300781 344.046875 99.65625 342.8125 98.753906 C 340.675781 97.191406 340.101562 97.109375 334.265625 98.015625 C 319.144531 100.398438 309.203125 110.667969 305.585938 127.761719 C 304.683594 131.871094 303.449219 134.914062 301.558594 137.542969 C 297.945312 142.472656 295.066406 148.390625 293.175781 154.46875 C 290.628906 162.933594 290.136719 161.867188 290.710938 149.128906 C 291.453125 130.804688 293.425781 122.503906 299.667969 110.09375 C 305.75 98.097656 320.296875 85.769531 333.9375 81.167969 C 340.183594 79.03125 343.386719 78.867188 349.386719 80.429688 Z M 338.539062 106.5625 C 337.058594 113.957031 330.898438 122.585938 324.816406 125.789062 C 321.527344 127.433594 311.503906 131.132812 311.175781 130.722656 C 310.847656 130.390625 314.132812 120.367188 315.613281 117.65625 C 319.554688 110.011719 328.433594 104.34375 337.144531 104.011719 C 338.867188 103.929688 339.03125 104.179688 338.539062 106.5625 Z M 262.195312 115.355469 C 266.550781 117.410156 272.632812 122.996094 275.179688 127.269531 C 277.070312 130.558594 280.523438 141.570312 280.523438 144.363281 C 280.523438 145.761719 280.277344 145.761719 276.414062 144.28125 C 263.675781 139.433594 257.265625 131.542969 256.117188 119.214844 C 255.539062 112.972656 256.117188 112.640625 262.195312 115.355469 Z M 327.035156 163.59375 C 326.214844 171.480469 323.910156 176.90625 319.390625 181.34375 C 315.859375 184.792969 309.859375 188.246094 304.4375 189.808594 C 302.628906 190.382812 302.546875 190.21875 303.121094 187.589844 C 304.105469 182.574219 307.066406 174.191406 308.957031 170.90625 C 312.488281 164.824219 321.117188 158.167969 325.636719 158.167969 C 327.527344 158.167969 327.609375 158.25 327.035156 163.59375 Z M 262.691406 169.507812 C 269.429688 172.632812 272.960938 176.824219 277.152344 186.929688 C 279.042969 191.367188 280.523438 195.230469 280.523438 195.394531 C 280.523438 196.050781 273.042969 193.914062 268.933594 192.109375 C 260.964844 188.574219 254.964844 180.273438 253.730469 170.988281 C 253.15625 167.289062 253.238281 167.207031 255.375 167.207031 C 256.527344 167.207031 259.894531 168.277344 262.691406 169.507812 Z M 438.304688 217.5 C 438.304688 237.140625 436.742188 256.042969 435.179688 255.960938 C 434.851562 255.878906 433.125 253.824219 431.316406 251.359375 C 429.511719 248.894531 425.8125 245.195312 423.101562 243.140625 L 418.167969 239.359375 L 417.757812 231.390625 L 417.347656 223.5 L 394.175781 223.253906 L 370.917969 223.089844 L 370.917969 201.722656 L 438.304688 201.722656 Z M 460.492188 232.949219 C 460.492188 266.972656 460.738281 265.164062 455.808594 263.273438 C 451.453125 261.628906 445.945312 260.972656 443.234375 261.710938 C 440.6875 262.453125 440.605469 262.371094 441.097656 260.398438 C 443.152344 252.261719 444.054688 240.675781 444.054688 222.019531 L 444.054688 201.722656 L 460.492188 201.722656 Z M 316.023438 264.589844 C 323.746094 277.160156 335.582031 288.089844 347.988281 294.007812 C 353.988281 296.882812 355.386719 297.871094 356.867188 300.746094 C 357.851562 302.554688 360.070312 306.007812 361.878906 308.390625 L 365.164062 312.664062 L 365.164062 328.523438 L 358.015625 328.03125 C 350.785156 327.535156 336.402344 324.414062 331.226562 322.195312 C 329.089844 321.375 327.773438 319.730469 325.226562 315.046875 L 322.023438 308.964844 L 322.023438 296.636719 C 322.023438 284.722656 321.941406 284.148438 319.722656 279.546875 C 316.761719 273.546875 310.679688 267.464844 304.929688 264.671875 C 297.367188 260.972656 294.820312 263.519531 293.917969 275.683594 C 293.011719 287.597656 296.546875 294.417969 308.050781 303.210938 C 314.296875 307.894531 319.308594 314.386719 317.585938 315.457031 C 316.679688 316.03125 306.160156 309.457031 299.832031 304.445312 C 292.847656 298.855469 284.714844 290.0625 279.699219 282.667969 C 275.179688 276.011719 269.015625 263.847656 269.015625 261.710938 C 269.015625 260.726562 274.6875 257.519531 287.261719 251.277344 L 305.421875 242.152344 L 309.203125 250.863281 C 311.339844 255.714844 314.378906 261.875 316.023438 264.589844 Z M 424.003906 252.34375 C 426.46875 254.890625 429.59375 259.246094 430.90625 262.042969 L 433.371094 267.054688 L 432.058594 271.164062 C 430.332031 276.421875 429.183594 277.65625 422.691406 281.433594 C 417.265625 284.558594 407.488281 288.585938 408.0625 287.433594 C 408.226562 287.023438 409.789062 283.902344 411.511719 280.285156 C 415.128906 272.890625 417.757812 261.546875 417.757812 253.25 C 417.757812 249.878906 418.085938 247.742188 418.664062 247.742188 C 419.15625 247.742188 421.539062 249.796875 424.003906 252.34375 Z M 451.78125 268.78125 C 460.082031 270.917969 460.492188 271.410156 460.492188 278.804688 C 460.492188 284.96875 460.410156 285.214844 457.203125 288.914062 L 454 292.695312 L 447.261719 293.269531 C 443.5625 293.597656 436.824219 294.582031 432.222656 295.40625 C 421.375 297.542969 421.375 297.542969 423.429688 294.664062 C 424.332031 293.433594 425.484375 291.378906 425.894531 290.226562 C 426.878906 287.679688 433.949219 283.816406 443.5625 280.695312 C 447.097656 279.546875 450.464844 277.984375 450.875 277.160156 C 453.011719 273.875 446.851562 271.902344 442.414062 274.449219 C 439.453125 276.09375 439.042969 275.929688 439.617188 273.382812 C 440.195312 270.835938 443.480469 267.464844 445.453125 267.464844 C 446.109375 267.464844 448.988281 268.039062 451.78125 268.78125 Z M 306.574219 272.890625 C 309.859375 275.4375 312.980469 279.378906 314.625 283.324219 C 316.269531 287.351562 317.253906 298.28125 315.941406 299.019531 C 315.449219 299.351562 313.066406 298.527344 310.679688 297.214844 C 302.957031 292.941406 298.601562 283.816406 299.832031 274.367188 C 300.328125 270.257812 300.492188 269.929688 302.136719 270.421875 C 303.121094 270.667969 305.09375 271.820312 306.574219 272.890625 Z M 404.609375 279.132812 C 402.390625 285.707031 400.582031 289.652344 399.84375 289.652344 C 399.515625 289.652344 398.445312 289.898438 397.460938 290.144531 C 395.078125 290.804688 394.996094 288.996094 397.132812 284.230469 C 398.695312 280.859375 403.953125 274.859375 405.433594 274.859375 C 405.84375 274.859375 405.515625 276.832031 404.609375 279.132812 Z M 415.949219 296.554688 C 413.730469 299.433594 411.925781 300.664062 406.5 302.964844 L 399.679688 305.84375 L 400.253906 303.707031 C 401.488281 298.691406 401.816406 298.363281 409.210938 295.734375 C 413.238281 294.253906 417.019531 293.105469 417.59375 293.023438 C 418.167969 292.941406 417.429688 294.582031 415.949219 296.554688 Z M 365.164062 300.746094 C 365.164062 301.40625 365 301.980469 364.835938 301.980469 C 364.671875 301.980469 364.34375 301.40625 364.015625 300.746094 C 363.769531 300.089844 363.933594 299.515625 364.34375 299.515625 C 364.835938 299.515625 365.164062 300.089844 365.164062 300.746094 Z M 393.761719 304.445312 C 392.285156 309.046875 391.625 309.785156 385.875 314.058594 C 382.421875 316.605469 377.820312 320.386719 375.683594 322.359375 L 371.738281 326.058594 L 371.738281 300.417969 L 380.613281 300.089844 C 385.464844 300.007812 390.804688 299.761719 392.449219 299.679688 L 395.488281 299.515625 Z M 443.726562 302.964844 C 433.125 311.839844 421.457031 318.660156 409.953125 322.769531 C 400.582031 326.058594 377.492188 330.414062 377.492188 328.851562 C 377.492188 328.605469 380.859375 325.8125 384.886719 322.605469 C 393.105469 316.359375 404.9375 309.867188 414.472656 306.664062 C 422.9375 303.789062 437.480469 300.664062 443.644531 300.417969 L 446.933594 300.335938 Z M 443.726562 302.964844 " fill-opacity="1" fill-rule="nonzero"/><path fill="#000000" d="M 539.054688 28.738281 C 536.753906 30.300781 535.109375 30.710938 531.902344 30.628906 C 526.644531 30.546875 525 32.027344 525.164062 36.628906 C 525.328125 40.488281 527.878906 46.160156 530.589844 48.707031 C 531.65625 49.695312 533.957031 51.007812 535.683594 51.585938 L 538.972656 52.734375 L 539.21875 57.746094 L 539.464844 62.84375 L 528.699219 62.84375 C 518.34375 62.84375 517.933594 62.925781 517.277344 64.648438 C 516.949219 65.71875 516.617188 127.023438 516.617188 200.902344 C 516.535156 347.425781 516.289062 338.960938 521.136719 338.960938 C 522.453125 338.960938 523.851562 338.546875 524.425781 337.972656 C 525.164062 337.234375 525.410156 329.671875 525.410156 309.128906 L 525.410156 281.351562 L 527.300781 281.847656 C 530.261719 282.75 534.699219 286.613281 537.574219 290.804688 L 540.203125 294.746094 L 540.203125 315.457031 C 540.203125 337.890625 540.449219 339.371094 544.394531 338.796875 L 546.367188 338.546875 L 546.777344 305.429688 L 547.1875 272.230469 L 549.078125 270.753906 C 551.050781 269.109375 557.542969 267.464844 561.980469 267.464844 L 564.855469 267.464844 L 564.855469 302.226562 C 564.855469 328.195312 565.105469 337.234375 565.84375 337.972656 C 567.40625 339.535156 571.265625 339.207031 572.253906 337.398438 C 572.746094 336.328125 573.074219 323.347656 573.074219 300.828125 C 573.074219 270.667969 573.238281 265.820312 574.308594 265.820312 C 574.964844 265.820312 577.59375 265.082031 580.058594 264.09375 C 585.15625 262.207031 591.894531 256.125 596.824219 249.140625 L 599.535156 245.195312 L 596.25 241.988281 C 592.222656 238.210938 585.402344 235.496094 578.253906 234.839844 L 573.074219 234.347656 L 573.074219 218.160156 L 656.894531 218.160156 L 656.894531 241.167969 L 651.226562 241.167969 C 644.40625 241.167969 643.335938 242.070312 644.160156 247.085938 C 645.0625 252.425781 648.351562 258.753906 652.871094 263.683594 L 656.894531 268.121094 L 656.894531 302.554688 C 656.894531 328.277344 657.144531 337.234375 657.882812 337.972656 C 659.113281 339.207031 662.894531 339.207031 664.128906 337.972656 C 664.867188 337.234375 665.113281 328.605469 665.113281 304.199219 L 665.113281 271.492188 L 667.003906 271.984375 C 672.839844 273.792969 678.015625 277.160156 680.890625 281.023438 L 684.015625 285.132812 L 684.179688 311.347656 C 684.425781 335.261719 684.589844 337.644531 685.90625 338.464844 C 686.890625 339.125 687.714844 339.125 688.78125 338.464844 C 689.933594 337.726562 690.261719 336 690.589844 329.015625 L 691 320.46875 L 694.945312 314.636719 C 698.808594 308.800781 704.3125 303.046875 707.765625 301.238281 L 709.488281 300.253906 L 709.488281 318.003906 C 709.488281 328.6875 709.820312 336.410156 710.3125 337.398438 C 711.296875 339.207031 715.40625 339.535156 716.804688 337.890625 C 717.378906 337.152344 717.789062 329.425781 717.871094 315.046875 L 718.117188 293.351562 L 721.816406 292.28125 C 733.074219 288.914062 737.675781 285.789062 740.222656 279.628906 C 741.949219 275.519531 741.949219 265.574219 740.308594 264.179688 C 739.402344 263.4375 736.199219 263.273438 728.390625 263.519531 L 717.707031 263.929688 L 717.707031 242.648438 L 721.734375 238.210938 C 726.089844 233.445312 728.800781 227.527344 730.199219 219.554688 C 731.511719 212.160156 730.609375 211.667969 720.417969 213.722656 L 717.707031 214.214844 L 717.707031 126.53125 L 721.488281 124.558594 C 728.800781 120.613281 734.308594 112.558594 737.101562 101.21875 C 739.074219 93.332031 738.582031 92.917969 728.390625 93.496094 C 724.035156 93.742188 719.925781 94.234375 719.105469 94.5625 C 717.789062 95.054688 717.707031 93.90625 717.707031 79.933594 C 717.707031 69.253906 717.378906 64.484375 716.722656 63.828125 C 715.324219 62.429688 659.28125 62.429688 657.882812 63.828125 C 657.144531 64.566406 656.894531 71.800781 656.894531 91.359375 C 656.894531 105.984375 656.730469 117.902344 656.484375 117.902344 C 656.320312 117.902344 654.265625 117.160156 651.964844 116.257812 C 645.390625 113.628906 643.746094 115.191406 643.746094 123.902344 C 643.746094 133.105469 646.953125 141.816406 653.035156 149.292969 L 656.894531 153.976562 L 656.894531 161.703125 C 656.894531 168.03125 656.648438 169.589844 655.582031 170.003906 C 653.363281 170.824219 621.558594 170.578125 621.558594 169.671875 C 621.558594 169.261719 622.628906 168.113281 624.023438 167.125 C 626.820312 164.988281 628.957031 160.960938 628.957031 157.59375 C 628.957031 154.46875 625.257812 147.074219 622.628906 145.019531 C 619.917969 142.882812 617.367188 142.964844 614.574219 145.183594 C 607.917969 150.363281 607.507812 162.113281 613.753906 167.042969 C 617.449219 170.003906 616.382812 170.496094 606.851562 170.496094 L 597.894531 170.496094 L 597.316406 166.140625 C 596.578125 160.46875 593.453125 153.730469 590.824219 152.003906 C 588.523438 150.445312 579.320312 149.867188 575.375 151.019531 L 573.074219 151.59375 L 573.074219 108.863281 C 573.074219 80.921875 572.746094 65.472656 572.253906 64.402344 C 571.429688 62.925781 570.363281 62.84375 558.695312 62.84375 L 545.957031 62.84375 L 545.957031 57.582031 C 545.957031 53.0625 546.203125 52.160156 547.519531 51.75 C 550.476562 50.84375 554.914062 45.011719 556.3125 40.160156 C 558.199219 33.667969 557.296875 31.285156 553.023438 30.957031 C 551.214844 30.792969 548.503906 29.808594 546.859375 28.65625 C 543.246094 26.191406 542.75 26.191406 539.054688 28.738281 Z M 548.667969 36.382812 C 549.902344 36.546875 550.886719 37.121094 550.886719 37.53125 C 550.886719 39.832031 546.367188 45.585938 544.558594 45.585938 C 543.820312 45.585938 543.492188 44.105469 543.492188 40.160156 C 543.492188 35.3125 543.65625 34.820312 544.96875 35.3125 C 545.710938 35.640625 547.351562 36.132812 548.667969 36.382812 Z M 537.738281 40.65625 C 537.738281 45.421875 537.65625 45.585938 536.09375 44.761719 C 534.285156 43.777344 532.480469 41.230469 531.65625 38.4375 C 531.164062 36.875 531.492188 36.628906 533.792969 36.300781 C 535.273438 36.132812 536.753906 35.886719 537.164062 35.886719 C 537.492188 35.804688 537.738281 37.941406 537.738281 40.65625 Z M 564.691406 102.863281 L 564.855469 134.335938 L 563.050781 134.335938 C 560.007812 134.417969 554.503906 137.296875 550.558594 140.992188 L 546.777344 144.445312 L 546.777344 115.519531 L 550.230469 113.628906 C 555.160156 110.917969 558.449219 105.328125 558.613281 99.492188 C 558.777344 93.332031 557.050781 91.605469 551.132812 91.605469 L 546.777344 91.605469 L 546.777344 81.90625 C 546.777344 76.566406 547.023438 71.882812 547.351562 71.554688 C 547.683594 71.222656 551.625 71.140625 556.144531 71.222656 L 564.445312 71.472656 Z M 684.015625 103.355469 C 684.015625 121.1875 684.261719 139.761719 684.507812 144.691406 C 685.082031 154.800781 684.589844 155.046875 681.222656 146.253906 C 678.015625 138.199219 673.25 130.390625 668.894531 126.121094 L 665.113281 122.503906 L 665.113281 71.058594 L 684.015625 71.058594 Z M 709.488281 84.621094 L 709.488281 98.261719 L 706.859375 99.65625 C 702.667969 101.875 695.929688 108.617188 693.792969 112.558594 C 692.726562 114.613281 691.574219 116.257812 691.246094 116.257812 C 690.835938 116.257812 690.589844 106.066406 690.589844 93.660156 L 690.589844 71.058594 L 709.488281 71.058594 Z M 540.203125 81.742188 L 540.203125 91.605469 L 536.175781 91.605469 C 531.65625 91.605469 530.753906 92.34375 529.933594 96.617188 C 528.863281 102.453125 532.234375 109.4375 538.148438 113.628906 C 540.613281 115.355469 541.027344 116.175781 541.027344 118.886719 C 541.027344 120.613281 540.859375 122.011719 540.695312 122.011719 C 540.53125 122.011719 538.476562 120.695312 536.09375 119.132812 C 533.710938 117.574219 530.34375 116.011719 528.617188 115.765625 L 525.410156 115.191406 L 525.410156 71.882812 L 540.203125 71.882812 Z M 552.53125 99 C 552.53125 103.929688 548.011719 108.863281 543.574219 108.863281 C 540.613281 108.863281 536.835938 104.753906 536.339844 100.808594 L 535.847656 97.355469 L 544.230469 97.355469 C 552.039062 97.355469 552.53125 97.4375 552.53125 99 Z M 730.855469 100.5625 C 730.855469 100.972656 730.117188 102.945312 729.210938 104.917969 L 727.570312 108.617188 L 718.777344 109.027344 C 712.613281 109.355469 708.585938 109.929688 705.628906 111.164062 C 703.246094 112.066406 701.273438 112.476562 701.273438 112.066406 C 701.273438 111.164062 708.996094 105.410156 712.777344 103.519531 C 718.613281 100.5625 730.855469 98.507812 730.855469 100.5625 Z M 722.308594 116.175781 C 719.433594 119.296875 711.214844 122.257812 703.574219 122.75 C 695.109375 123.324219 694.699219 122.667969 701.4375 119.296875 C 707.519531 116.339844 713.761719 114.695312 719.269531 114.695312 C 723.542969 114.613281 723.707031 114.695312 722.308594 116.175781 Z M 532.644531 124.476562 C 534.535156 125.789062 537 128.339844 538.148438 129.980469 C 540.121094 133.023438 540.203125 133.515625 540.613281 152.664062 C 540.859375 165.316406 540.695312 172.140625 540.203125 172.140625 C 539.710938 172.140625 539.382812 171.808594 539.382812 171.316406 C 539.382812 170.085938 531.082031 164.988281 528.125 164.332031 L 525.410156 163.757812 L 525.410156 122.011719 L 527.300781 122.011719 C 528.371094 122.011719 530.835938 123.078125 532.644531 124.476562 Z M 656.320312 125.378906 C 660.839844 127.761719 666.757812 132.941406 669.386719 136.964844 C 671.03125 139.351562 674.152344 145.675781 676.453125 150.9375 L 680.5625 160.550781 L 674.234375 157.429688 C 662.15625 151.347656 655.582031 144.363281 651.964844 134.007812 C 651.0625 131.296875 650.320312 127.761719 650.320312 126.039062 C 650.320312 122.996094 650.402344 122.914062 652.457031 123.652344 C 653.609375 124.148438 655.335938 124.886719 656.320312 125.378906 Z M 709.488281 152.746094 C 709.488281 178.628906 709.984375 176.246094 703.984375 177.480469 C 701.027344 178.054688 695.191406 182 692.480469 185.203125 L 690.671875 187.339844 L 690.671875 160.222656 C 690.589844 145.265625 690.917969 132.695312 691.246094 132.117188 C 692.152344 130.640625 697.082031 129.570312 703.574219 129.488281 L 709.488281 129.40625 Z M 564.609375 150.363281 C 564.691406 158.578125 564.527344 159.730469 562.554688 163.511719 C 560.253906 168.113281 559.1875 177.808594 560.5 182.820312 C 561.242188 185.617188 561.160156 185.863281 555.734375 191.121094 C 552.695312 194.082031 549.570312 197.777344 548.75 199.339844 C 547.1875 202.132812 547.1875 202.050781 546.941406 179.289062 C 546.777344 157.839844 546.859375 156.359375 548.421875 153.238281 C 550.886719 148.472656 554.996094 144.117188 558.695312 142.472656 C 564.199219 139.925781 564.445312 140.171875 564.609375 150.363281 Z M 620.738281 152.582031 C 623.859375 157.757812 622.300781 163.015625 617.945312 161.949219 C 615.5625 161.375 614.820312 158.824219 615.726562 154.800781 C 617.039062 149.128906 618.273438 148.554688 620.738281 152.582031 Z M 583.183594 159.074219 C 582.359375 160.386719 578.664062 165.648438 574.964844 170.742188 C 571.183594 175.753906 568.144531 180.191406 568.144531 180.601562 C 568.144531 180.933594 567.816406 181.015625 567.324219 180.765625 C 565.679688 179.78125 566.417969 170.332031 568.472656 165.976562 C 571.511719 159.402344 575.375 156.6875 581.539062 156.605469 L 584.660156 156.523438 Z M 590.660156 163.179688 C 591.566406 167.867188 591.152344 170.988281 589.101562 175.097656 C 587.949219 177.316406 586.140625 179.78125 585.074219 180.519531 C 582.855469 182.082031 573.074219 184.710938 573.074219 183.726562 C 573.074219 183.398438 575.703125 179.617188 578.910156 175.34375 C 582.113281 171.070312 585.648438 166.058594 586.796875 164.085938 C 587.949219 162.195312 589.101562 160.632812 589.511719 160.632812 C 589.839844 160.632812 590.332031 161.785156 590.660156 163.179688 Z M 671.523438 163.675781 C 674.566406 165.316406 678.589844 167.949219 680.5625 169.425781 L 684.015625 172.222656 L 683.933594 192.519531 C 683.933594 207.476562 683.6875 212.242188 683.027344 210.761719 C 677.277344 197.039062 672.757812 190.710938 665.769531 186.683594 C 659.28125 182.820312 648.269531 180.851562 644.488281 182.820312 C 642.433594 183.972656 642.433594 188 644.570312 193.667969 C 646.542969 199.09375 649.992188 203.367188 654.84375 206.40625 C 656.894531 207.640625 658.539062 208.871094 658.539062 209.117188 C 658.539062 209.367188 650.402344 209.367188 640.460938 209.117188 C 630.515625 208.871094 622.382812 208.460938 622.382812 208.050781 C 622.382812 207.722656 622.382812 200.984375 622.382812 193.09375 L 622.382812 178.714844 L 642.761719 178.714844 C 657.554688 178.714844 663.386719 178.464844 664.128906 177.726562 C 664.785156 177.070312 665.113281 173.863281 665.113281 168.6875 C 665.113281 164.25 665.359375 160.632812 665.605469 160.632812 C 665.855469 160.632812 668.566406 161.949219 671.523438 163.675781 Z M 530.261719 172.140625 C 533.792969 173.863281 537.082031 177.480469 539.300781 181.917969 C 540.695312 184.628906 540.777344 186.765625 540.367188 207.230469 L 539.957031 229.582031 L 536.339844 226.375 C 534.285156 224.648438 531 222.515625 529.027344 221.773438 L 525.410156 220.378906 L 525.410156 195.476562 C 525.410156 178.714844 525.660156 170.496094 526.234375 170.496094 C 526.726562 170.496094 528.535156 171.234375 530.261719 172.140625 Z M 615.644531 194.082031 L 615.808594 209.117188 L 590.332031 209.117188 C 570.527344 209.117188 564.855469 209.367188 564.855469 210.105469 C 564.773438 210.679688 564.855469 217.171875 564.855469 224.484375 L 564.9375 237.796875 L 562.636719 239.03125 C 558.53125 241.167969 552.53125 247.988281 549.65625 253.824219 L 546.777344 259.492188 L 546.777344 215.527344 L 549.242188 210.351562 C 552.039062 204.515625 560.996094 194.328125 565.023438 192.4375 C 566.5 191.777344 570.773438 190.792969 574.554688 190.300781 C 583.265625 189.148438 587.621094 187.257812 592.058594 182.492188 L 595.675781 178.628906 L 605.535156 178.878906 L 615.398438 179.125 Z M 709.488281 200.820312 L 709.488281 217.992188 L 706.613281 219.800781 C 701.355469 223.089844 695.765625 231.390625 692.152344 241.578125 L 690.671875 245.6875 L 690.671875 222.347656 L 690.589844 199.011719 L 692.726562 195.230469 C 696.753906 188.246094 702.585938 183.726562 707.683594 183.644531 L 709.488281 183.644531 Z M 655.582031 189.726562 C 657.964844 190.710938 658.457031 191.449219 659.28125 195.148438 C 660.265625 199.832031 660.429688 201.722656 659.691406 201.722656 C 657.308594 201.722656 649.5 192.519531 649.5 189.644531 C 649.5 188.246094 652.128906 188.246094 655.582031 189.726562 Z M 673.90625 204.84375 C 675.058594 207.230469 675.796875 209.367188 675.632812 209.53125 C 675.46875 209.695312 673.578125 208.789062 671.523438 207.476562 C 668.238281 205.421875 667.496094 204.433594 666.347656 200.738281 C 665.6875 198.4375 665.113281 195.722656 665.113281 194.820312 C 665.195312 192.273438 671.359375 199.339844 673.90625 204.84375 Z M 673.742188 216.515625 C 676.453125 217.828125 679.824219 220.128906 681.222656 221.609375 L 683.851562 224.320312 L 684.261719 242.152344 C 684.425781 252.015625 684.589844 260.070312 684.425781 260.070312 C 684.34375 260.070312 683.109375 258.261719 681.714844 256.042969 C 679.085938 251.769531 674.480469 247.90625 668.648438 245.03125 L 665.113281 243.304688 L 665.113281 213.144531 L 667.003906 213.636719 C 667.992188 213.96875 671.03125 215.199219 673.742188 216.515625 Z M 723.460938 221.199219 C 723.460938 224.074219 718.695312 232.621094 715.570312 235.332031 C 712.121094 238.457031 701.027344 243.878906 699.136719 243.46875 C 698.230469 243.304688 698.476562 242.152344 700.449219 238.046875 C 704.804688 228.921875 709.078125 224.734375 717.378906 221.445312 C 722.472656 219.472656 723.460938 219.472656 723.460938 221.199219 Z M 530.835938 229.828125 C 533.054688 231.308594 536.011719 234.347656 537.492188 236.648438 L 540.203125 240.757812 L 540.203125 283.078125 L 536.339844 280.121094 C 534.121094 278.476562 530.835938 276.421875 528.945312 275.601562 L 525.410156 274.121094 L 525.410156 250.617188 C 525.410156 237.550781 525.742188 227.199219 526.152344 227.199219 C 526.5625 227.199219 528.699219 228.429688 530.835938 229.828125 Z M 586.632812 243.140625 C 589.511719 244.457031 589.675781 244.703125 588.277344 245.195312 C 587.375 245.605469 583.101562 246.097656 578.828125 246.425781 C 574.554688 246.675781 568.800781 247.496094 566.089844 248.152344 C 559.84375 249.632812 559.515625 249.632812 560.75 248.070312 C 562.308594 246.261719 568.636719 242.730469 571.679688 241.90625 C 575.621094 240.921875 582.9375 241.496094 586.632812 243.140625 Z M 709.160156 269.601562 L 708.667969 292.28125 L 703.738281 295.898438 C 699.464844 299.019531 694.78125 304.199219 691.65625 309.046875 C 690.917969 310.28125 690.671875 305.429688 690.671875 286.449219 C 690.589844 263.519531 690.671875 262.042969 692.316406 258.671875 C 693.21875 256.78125 695.191406 254.316406 696.589844 253.332031 C 699.300781 251.359375 707.765625 247.003906 708.996094 246.921875 C 709.324219 246.921875 709.40625 257.109375 709.160156 269.601562 Z M 661.417969 250.125 L 665.523438 251.441406 L 667.742188 258.34375 C 668.976562 262.207031 669.878906 265.492188 669.632812 265.65625 C 668.8125 266.480469 659.03125 261.136719 656.894531 258.671875 C 654.429688 255.878906 651.144531 250.125 651.144531 248.644531 C 651.144531 247.660156 655.910156 248.316406 661.417969 250.125 Z M 584.992188 253.496094 C 580.71875 258.179688 572.828125 260.890625 563.214844 260.890625 C 559.84375 260.890625 555.816406 261.21875 554.339844 261.628906 C 549.078125 263.191406 552.285156 259.574219 558.695312 256.699219 C 563.050781 254.726562 576.855469 252.015625 582.855469 251.933594 C 586.46875 251.851562 586.46875 251.851562 584.992188 253.496094 Z M 680.644531 266.230469 C 682.863281 271.492188 682.453125 272.722656 679.496094 269.929688 C 677.113281 267.710938 674.480469 262.453125 673.742188 258.425781 L 673.25 255.550781 L 675.960938 258.589844 C 677.523438 260.234375 679.578125 263.683594 680.644531 266.230469 Z M 735.785156 271.738281 C 735.785156 276.996094 729.871094 283.734375 724.117188 285.132812 L 721.898438 285.707031 L 723.460938 282.585938 C 724.363281 280.777344 726.007812 277.242188 727.160156 274.613281 C 729.046875 270.011719 729.210938 269.929688 732.417969 269.929688 C 735.292969 269.929688 735.785156 270.175781 735.785156 271.738281 Z M 721.40625 272.558594 C 720.253906 276.339844 715.980469 284.722656 715.160156 284.722656 C 714.667969 284.722656 714.421875 282.585938 714.585938 279.628906 C 714.832031 274.859375 714.996094 274.367188 717.625 272.640625 C 721.160156 270.257812 722.0625 270.257812 721.40625 272.558594 Z M 721.40625 272.558594 " fill-opacity="1" fill-rule="nonzero"/></svg>